<svg width="400" height="191" viewBox="0 0 400 191" fill="none" xmlns="http://www.w3.org/2000/svg">
<path d="M385.164 3.50467C386.646 3.48923 388.117 3.76791 389.491 4.32459C390.865 4.88128 392.116 5.70492 393.169 6.74786C394.223 7.79081 395.06 9.03236 395.631 10.4007C396.202 11.769 396.495 13.237 396.495 14.7196V175.35C396.495 176.833 396.202 178.301 395.631 179.669C395.06 181.038 394.223 182.279 393.169 183.322C392.116 184.365 390.865 185.189 389.491 185.746C388.117 186.302 386.646 186.581 385.164 186.565H14.8364C13.3539 186.581 11.883 186.302 10.5088 185.746C9.1346 185.189 7.88445 184.365 6.83064 183.322C5.77683 182.279 4.94029 181.038 4.3694 179.669C3.7985 178.301 3.50459 176.833 3.50467 175.35V14.7196C3.50459 13.237 3.7985 11.769 4.3694 10.4007C4.94029 9.03236 5.77683 7.79081 6.83064 6.74786C7.88445 5.70492 9.1346 4.88128 10.5088 4.32459C11.883 3.76791 13.3539 3.48923 14.8364 3.50467H385.164ZM385.164 7.13931e-09H14.8364C10.9217 -0.000121351 7.16562 1.54695 4.38658 4.30411C1.60754 7.06127 0.0308245 10.805 0 14.7196V175.35C0.0308245 179.265 1.60754 183.009 4.38658 185.766C7.16562 188.523 10.9217 190.07 14.8364 190.07H385.164C389.078 190.07 392.834 188.523 395.613 185.766C398.392 183.009 399.969 179.265 400 175.35V14.7196C399.969 10.805 398.392 7.06127 395.613 4.30411C392.834 1.54695 389.078 -0.000121351 385.164 7.13931e-09Z" fill="black"/>
<path d="M3.50464 175.35V14.7195C3.50456 13.2368 3.79847 11.7689 4.36936 10.4005C4.94026 9.0322 5.7768 7.79065 6.83061 6.7477C7.88442 5.70476 9.13457 4.88112 10.5087 4.32443C11.8829 3.76775 13.3538 3.48907 14.8364 3.50451H385.164C386.646 3.48907 388.117 3.76775 389.491 4.32443C390.865 4.88112 392.116 5.70476 393.169 6.7477C394.223 7.79065 395.06 9.0322 395.631 10.4005C396.201 11.7689 396.495 13.2368 396.495 14.7195V175.35C396.495 176.833 396.201 178.301 395.631 179.669C395.06 181.038 394.223 182.279 393.169 183.322C392.116 184.365 390.865 185.189 389.491 185.745C388.117 186.302 386.646 186.581 385.164 186.565H14.8364C13.3538 186.581 11.8829 186.302 10.5087 185.745C9.13457 185.189 7.88442 184.365 6.83061 183.322C5.7768 182.279 4.94026 181.038 4.36936 179.669C3.79847 178.301 3.50456 176.833 3.50464 175.35Z" fill="#2F3136"/>
<path d="M9.22895 170.795V169.16C9.21349 167.83 9.46196 166.511 9.95993 165.279C10.4579 164.047 11.1955 162.925 12.1299 161.98C13.0644 161.035 14.1772 160.284 15.4038 159.772C16.6304 159.26 17.9464 158.996 19.2757 158.996H380.724C382.054 158.996 383.37 159.26 384.596 159.772C385.823 160.284 386.936 161.035 387.87 161.98C388.805 162.925 389.542 164.047 390.04 165.279C390.538 166.511 390.786 167.83 390.771 169.16V170.795C390.786 172.124 390.538 173.443 390.04 174.676C389.542 175.908 388.805 177.03 387.87 177.975C386.936 178.92 385.823 179.671 384.596 180.183C383.37 180.695 382.054 180.959 380.724 180.959H19.2757C17.9464 180.959 16.6304 180.695 15.4038 180.183C14.1772 179.671 13.0644 178.92 12.1299 177.975C11.1955 177.03 10.4579 175.908 9.95993 174.676C9.46196 173.443 9.21349 172.124 9.22895 170.795Z" fill="#40444B"/>
<path fill-rule="evenodd" clip-rule="evenodd" d="M297.667 166.001C297.667 164.528 298.861 163.334 300.333 163.334H300.392C301.597 163.334 302.653 164.124 303 165.266C303.347 164.124 304.403 163.334 305.608 163.334H305.667C307.139 163.334 308.333 164.528 308.333 166.001C308.333 166.486 308.204 166.942 307.977 167.334H308.333C309.07 167.334 309.667 167.931 309.667 168.667V169.667C309.667 169.851 309.517 170.001 309.333 170.001H296.667C296.483 170.001 296.333 169.851 296.333 169.667V168.667C296.333 167.931 296.93 167.334 297.667 167.334H298.023C297.797 166.942 297.667 166.486 297.667 166.001ZM305.667 167.334C306.403 167.334 307 166.737 307 166.001C307 165.264 306.403 164.667 305.667 164.667H305.608C304.969 164.667 304.412 165.102 304.257 165.722L303.854 167.334H305.667ZM301.743 165.722L302.146 167.334H300.333C299.597 167.334 299 166.737 299 166.001C299 165.264 299.597 164.667 300.333 164.667H300.392C301.031 164.667 301.588 165.102 301.743 165.722Z" fill="#B9BBBE"/>
<path d="M297 175.334C297 176.07 297.597 176.667 298.333 176.667H302C302.184 176.667 302.333 176.518 302.333 176.334V171.667C302.333 171.483 302.184 171.334 302 171.334H297.333C297.149 171.334 297 171.483 297 171.667V175.334Z" fill="#B9BBBE"/>
<path d="M304 176.667C303.816 176.667 303.667 176.518 303.667 176.334V171.667C303.667 171.483 303.816 171.334 304 171.334H308.667C308.851 171.334 309 171.483 309 171.667V175.334C309 176.07 308.403 176.667 307.667 176.667H304Z" fill="#B9BBBE"/>
<path fill-rule="evenodd" clip-rule="evenodd" d="M321.333 163.334C320.229 163.334 319.333 164.229 319.333 165.334V174.667C319.333 175.772 320.229 176.667 321.333 176.667H330.667C331.771 176.667 332.667 175.772 332.667 174.667V165.334C332.667 164.229 331.771 163.334 330.667 163.334H321.333ZM322.787 172.581C322.37 172.581 322.001 172.473 321.68 172.257C321.359 172.042 321.11 171.74 320.933 171.352C320.755 170.959 320.667 170.508 320.667 170C320.667 169.497 320.76 169.052 320.947 168.664C321.139 168.276 321.414 167.971 321.773 167.751C322.138 167.531 322.571 167.42 323.074 167.42C323.501 167.42 323.882 167.511 324.217 167.694C324.557 167.876 324.813 168.132 324.986 168.462L324.174 169.045C323.93 168.594 323.565 168.369 323.081 168.369C322.641 168.369 322.303 168.513 322.068 168.8C321.833 169.083 321.716 169.483 321.716 170C321.716 170.523 321.833 170.925 322.068 171.208C322.303 171.491 322.641 171.632 323.081 171.632C323.278 171.632 323.458 171.596 323.62 171.524C323.788 171.447 323.918 171.344 324.009 171.215V170.597H322.866V169.663H325.029V172.48H324.181L324.045 172.006C323.762 172.389 323.343 172.581 322.787 172.581ZM327.013 172.48H325.964V167.521H327.013V172.48ZM328.02 172.48H329.07V170.597H330.909V169.648H329.07V168.47H331.333V167.521H328.02V172.48Z" fill="#B6BAC1"/>
<g clip-path="url(#clip0_27840_41859)">
<path fill-rule="evenodd" clip-rule="evenodd" d="M372 177.333C376.05 177.333 379.333 174.049 379.333 169.999C379.333 165.949 376.05 162.666 372 162.666C367.95 162.666 364.667 165.949 364.667 169.999C364.667 174.049 367.95 177.333 372 177.333ZM368.333 170.666C368.886 170.666 369.333 170.218 369.333 169.666C369.333 169.114 368.886 168.666 368.333 168.666C367.781 168.666 367.333 169.114 367.333 169.666C367.333 170.218 367.781 170.666 368.333 170.666ZM375.667 170.666C376.219 170.666 376.667 170.218 376.667 169.666C376.667 169.114 376.219 168.666 375.667 168.666C375.114 168.666 374.667 169.114 374.667 169.666C374.667 170.218 375.114 170.666 375.667 170.666ZM369.134 171.445C369.44 171.241 369.854 171.323 370.059 171.629C370.479 172.256 371.192 172.666 372 172.666C372.808 172.666 373.521 172.256 373.941 171.629C374.146 171.323 374.56 171.241 374.866 171.445C375.172 171.65 375.254 172.064 375.049 172.37C374.392 173.351 373.272 173.999 372 173.999C370.728 173.999 369.608 173.351 368.951 172.37C368.746 172.064 368.828 171.65 369.134 171.445Z" fill="#B9BBBE"/>
</g>
<path fill-rule="evenodd" clip-rule="evenodd" d="M345 163.334H353C354.473 163.334 355.667 164.528 355.667 166.001V171.001C355.667 171.185 355.517 171.334 355.333 171.334H353.667C351.826 171.334 350.333 172.826 350.333 174.667V176.334C350.333 176.518 350.184 176.667 350 176.667H345C343.527 176.667 342.333 175.473 342.333 174.001V166.001C342.333 164.528 343.527 163.334 345 163.334ZM345.333 168.667C345.886 168.667 346.333 168.22 346.333 167.667C346.333 167.115 345.886 166.667 345.333 166.667C344.781 166.667 344.333 167.115 344.333 167.667C344.333 168.22 344.781 168.667 345.333 168.667ZM353.667 167.667C353.667 168.22 353.219 168.667 352.667 168.667C352.114 168.667 351.667 168.22 351.667 167.667C351.667 167.115 352.114 166.667 352.667 166.667C353.219 166.667 353.667 167.115 353.667 167.667ZM347.059 169.63C346.854 169.324 346.44 169.242 346.134 169.447C345.828 169.651 345.746 170.066 345.951 170.371C346.608 171.352 347.728 172.001 349 172.001C350.272 172.001 351.392 171.352 352.049 170.371C352.254 170.066 352.172 169.651 351.866 169.447C351.56 169.242 351.146 169.324 350.941 169.63C350.521 170.257 349.808 170.667 349 170.667C348.192 170.667 347.479 170.257 347.059 169.63Z" fill="#B6BAC1"/>
<path d="M355.44 172.667C355.462 172.667 355.477 172.69 355.467 172.71C355.37 172.91 355.241 173.093 355.081 173.253L352.252 176.082C352.093 176.241 351.909 176.371 351.71 176.468C351.69 176.477 351.667 176.462 351.667 176.44V174.667C351.667 173.563 352.562 172.667 353.667 172.667H355.44Z" fill="#B6BAC1"/>
<path d="M44.8597 173.716L44.3924 168.109L42.2896 173.716H41.4718L39.369 168.109L38.9017 173.716H38.084L38.5513 166.707H39.7195L41.9391 172.431L44.0419 166.707H45.2102L45.6774 173.716H44.8597Z" fill="#72767D"/>
<path d="M49.0653 173.717C47.7803 173.717 46.8457 173.016 46.8457 171.264C46.8457 169.511 47.6635 168.811 48.9485 168.811C50.2336 168.811 50.9345 169.862 50.9345 171.147V171.381H47.6635C47.7803 172.432 48.2476 173.016 49.0653 173.016C49.7172 173.013 50.3436 172.763 50.8177 172.315V173.133C50.3018 173.492 49.6934 173.695 49.0653 173.717ZM47.7803 170.68H49.9999C49.8831 169.979 49.6494 169.511 48.9485 169.511C48.2476 169.511 47.8971 169.862 47.7803 170.68Z" fill="#72767D"/>
<path d="M53.5044 173.716C52.9023 173.722 52.3054 173.603 51.7521 173.365V172.43C52.2576 172.81 52.8725 173.015 53.5044 173.015C54.0885 173.015 54.439 172.781 54.439 172.43C54.439 172.08 54.2054 171.846 53.2708 171.613C52.3362 171.379 51.7521 170.912 51.7521 170.094C51.7521 169.276 52.3362 168.809 53.3876 168.809C53.9522 168.801 54.5114 168.921 55.0231 169.159V169.977C54.5548 169.718 54.0376 169.559 53.5044 169.51C53.0371 169.51 52.6867 169.744 52.6867 170.094C52.6867 170.445 52.9203 170.561 53.7381 170.795C54.5558 171.029 55.3736 171.379 55.3736 172.314C55.3736 173.248 54.7895 173.716 53.5044 173.716Z" fill="#72767D"/>
<path d="M57.9437 173.715C57.3395 173.747 56.7371 173.626 56.1914 173.365V172.43C56.661 172.793 57.2337 172.998 57.8269 173.015C58.5279 173.015 58.8783 172.781 58.8783 172.43C58.8783 172.08 58.5279 171.846 57.7101 171.613C56.8923 171.379 56.1914 170.912 56.1914 170.094C56.1914 169.276 56.7755 168.809 57.8269 168.809C58.354 168.802 58.875 168.922 59.3456 169.159V169.977C58.9261 169.704 58.4434 169.543 57.9437 169.51C57.3596 169.51 57.126 169.743 57.126 170.094C57.126 170.444 57.3596 170.561 58.0606 170.795C58.7615 171.029 59.8129 171.379 59.8129 172.314C59.8129 173.248 59.112 173.715 57.9437 173.715Z" fill="#72767D"/>
<path d="M63.7849 173.716V173.015C63.3536 173.455 62.7657 173.707 62.1494 173.716C61.2148 173.716 60.7476 173.248 60.7476 172.431C60.7476 171.613 61.6821 170.795 63.6681 170.562V170.328C63.689 170.216 63.6823 170.101 63.6487 169.992C63.615 169.883 63.5553 169.784 63.4747 169.704C63.3942 169.623 63.2953 169.563 63.1865 169.53C63.0777 169.496 62.9623 169.489 62.8503 169.51C62.2772 169.542 61.7184 169.702 61.2148 169.977V169.16C61.7634 168.907 62.3637 168.787 62.9672 168.809C64.1354 168.809 64.7195 169.277 64.7195 170.328V173.716H63.7849ZM63.5513 171.262C61.799 171.379 61.4485 171.847 61.4485 172.431C61.4485 173.015 61.6821 173.015 62.1494 173.015C62.4231 173.025 62.6948 172.966 62.9398 172.843C63.1847 172.721 63.395 172.539 63.5513 172.314V171.262Z" fill="#72767D"/>
<path d="M67.5233 175.469C66.3551 175.469 65.3037 175.118 65.3037 174.3C65.3037 173.483 65.6542 173.366 66.3551 173.015C66.2608 172.975 66.1788 172.911 66.1173 172.829C66.0558 172.747 66.0169 172.65 66.0047 172.548C66.0047 172.314 66.2383 172.081 66.5888 171.847C66.3021 171.746 66.0559 171.555 65.8874 171.302C65.7188 171.049 65.637 170.749 65.6542 170.445C65.6518 170.209 65.7004 169.976 65.7968 169.76C65.8932 169.545 66.035 169.353 66.2126 169.198C66.3902 169.042 66.5993 168.927 66.8255 168.86C67.0518 168.793 67.2898 168.776 67.5233 168.81C67.9399 168.801 68.3485 168.924 68.6916 169.16L69.9766 168.81V169.628H69.042C69.1724 169.84 69.2523 170.08 69.2757 170.328C69.2608 170.559 69.2007 170.784 69.0986 170.991C68.9965 171.198 68.8546 171.383 68.6809 171.535C68.5072 171.687 68.3052 171.803 68.0865 171.876C67.8678 171.95 67.6367 171.98 67.4065 171.964H67.056L66.8224 172.198C66.8224 172.431 66.9392 172.431 67.757 172.548H68.1074C69.1588 172.665 69.743 173.015 69.743 173.833C69.743 174.651 68.8084 175.469 67.5233 175.469ZM66.9392 173.249C66.4719 173.599 66.2383 173.833 66.2383 174.184C66.2383 174.534 66.7056 174.885 67.6402 174.885C68.5747 174.885 69.042 174.534 69.042 174.067C69.042 173.599 68.8084 173.599 68.1074 173.483H66.9392V173.249ZM67.5233 169.394C67.2445 169.394 66.9771 169.505 66.7799 169.702C66.5827 169.899 66.4719 170.166 66.4719 170.445C66.4719 170.724 66.5827 170.992 66.7799 171.189C66.9771 171.386 67.2445 171.497 67.5233 171.497C67.8022 171.497 68.0696 171.386 68.2668 171.189C68.464 170.992 68.5747 170.724 68.5747 170.445C68.5747 170.166 68.464 169.899 68.2668 169.702C68.0696 169.505 67.8022 169.394 67.5233 169.394Z" fill="#72767D"/>
<path d="M72.7802 173.717C71.4951 173.717 70.5606 173.016 70.5606 171.264C70.5284 170.963 70.5581 170.659 70.6478 170.37C70.7375 170.081 70.8854 169.813 71.0823 169.583C71.2793 169.353 71.5211 169.166 71.793 169.034C72.0649 168.901 72.3611 168.825 72.6634 168.811C74.0652 168.811 74.6494 169.862 74.6494 171.147V171.381H71.4951C71.4951 172.432 71.9624 173.016 72.897 173.016C73.5133 173.007 74.1011 172.755 74.5325 172.315V173.133C74.027 173.512 73.4121 173.717 72.7802 173.717ZM71.4951 170.68H73.8316C73.7148 169.979 73.3643 169.511 72.6634 169.511C71.9624 169.511 71.612 169.862 71.4951 170.68Z" fill="#72767D"/>
<path d="M82.4766 168.577H83.528V169.395H82.3598L82.0093 171.147H83.1775V171.965H81.7757L81.542 173.717H80.8411L81.0747 171.965H79.4392L79.0888 173.717H78.3878L78.7383 172.082H77.5701V171.264H78.8551L79.0888 169.511H77.9205V168.694H79.3224L79.6729 167.058H80.3738L80.0233 168.694H81.7757L82.0093 166.941H82.7102L82.4766 168.577ZM79.6729 171.147H81.3084L81.6589 169.395H79.9065L79.6729 171.147Z" fill="#72767D"/>
<path d="M86.3317 175.468C85.0466 175.468 84.1121 175.117 84.1121 174.3C84.1121 173.482 84.4625 173.365 85.1635 173.014C85.0692 172.974 84.9871 172.91 84.9256 172.828C84.8641 172.746 84.8252 172.649 84.813 172.547C84.813 172.314 85.0466 172.08 85.2803 171.846C85.0253 171.714 84.8132 171.512 84.6684 171.264C84.5237 171.016 84.4523 170.731 84.4625 170.444C84.4619 170.219 84.5078 169.997 84.5972 169.79C84.6866 169.584 84.8176 169.398 84.9821 169.245C85.1466 169.091 85.3409 168.973 85.553 168.898C85.7652 168.823 85.9905 168.793 86.2149 168.809C86.6681 168.799 87.1146 168.92 87.4999 169.159L88.6681 168.809V169.627H87.8504C87.9442 169.848 87.9842 170.088 87.9672 170.328C87.9678 170.553 87.9219 170.775 87.8325 170.982C87.7431 171.188 87.6121 171.374 87.4476 171.527C87.2832 171.681 87.0888 171.799 86.8767 171.874C86.6645 171.949 86.4392 171.979 86.2149 171.963H85.7476L85.5139 172.197C85.5139 172.43 85.7476 172.43 86.5653 172.547H86.9158C87.9672 172.664 88.5513 173.014 88.5513 173.832C88.5513 174.65 87.6167 175.468 86.3317 175.468ZM85.7476 173.248C85.1635 173.599 84.9298 173.832 84.9298 174.183C84.9298 174.533 85.3971 174.884 86.3317 174.884C87.2663 174.884 87.8504 174.533 87.8504 174.066C87.8504 173.599 87.6167 173.599 86.9158 173.482H85.7476V173.248ZM86.2149 169.393C85.936 169.393 85.6686 169.504 85.4714 169.701C85.2742 169.898 85.1635 170.166 85.1635 170.444C85.1635 170.723 85.2742 170.991 85.4714 171.188C85.6686 171.385 85.936 171.496 86.2149 171.496C86.3575 171.515 86.5026 171.501 86.639 171.455C86.7753 171.409 86.8992 171.332 87.001 171.23C87.1027 171.129 87.1796 171.005 87.2256 170.868C87.2716 170.732 87.2855 170.587 87.2663 170.444C87.2663 170.166 87.1555 169.898 86.9583 169.701C86.7611 169.504 86.4937 169.393 86.2149 169.393Z" fill="#72767D"/>
<path d="M91.5886 174.183C91.2382 175.234 90.7709 175.468 90.07 175.468H89.6027V174.65H90.07C90.5372 174.65 90.7709 174.533 91.0045 173.949V173.716L89.2522 168.926H90.07L91.355 172.664L92.64 169.043H93.5746L91.5886 174.183Z" fill="#72767D"/>
<path d="M100.35 173.717V170.446C100.35 169.979 100.234 169.628 99.6495 169.628C99.3974 169.646 99.1521 169.717 98.9302 169.838C98.7084 169.959 98.5154 170.127 98.3644 170.329V173.717H97.4298V170.446C97.4298 169.979 97.313 169.628 96.7289 169.628C96.475 169.637 96.2266 169.705 96.0036 169.827C95.7805 169.949 95.5889 170.121 95.4439 170.329V173.717H94.5093V168.927H95.2102V169.628C95.6296 169.155 96.2155 168.862 96.8457 168.811C97.5467 168.811 98.014 169.044 98.1308 169.628C98.5502 169.155 99.1361 168.862 99.7663 168.811C99.9549 168.792 100.145 168.816 100.323 168.88C100.502 168.944 100.664 169.047 100.798 169.181C100.932 169.315 101.034 169.477 101.098 169.655C101.162 169.834 101.186 170.024 101.168 170.212V173.717H100.35Z" fill="#72767D"/>
<path d="M102.453 171.263V170.328H105.023V171.263H102.453Z" fill="#72767D"/>
<path d="M108.294 173.717L107.126 173.483V175.353H106.191V168.927H106.892V169.628C107.061 169.38 107.287 169.176 107.552 169.034C107.816 168.891 108.111 168.815 108.411 168.811C109.462 168.811 110.397 169.511 110.397 171.147C110.447 171.457 110.43 171.774 110.349 172.077C110.267 172.38 110.122 172.662 109.923 172.905C109.725 173.148 109.477 173.346 109.196 173.486C108.915 173.626 108.608 173.705 108.294 173.717ZM108.411 169.628C108.144 169.639 107.884 169.721 107.659 169.864C107.433 170.008 107.249 170.209 107.126 170.446V172.666C107.461 172.919 107.875 173.043 108.294 173.016C108.995 173.016 109.579 172.315 109.579 171.147C109.579 169.979 109.112 169.628 108.411 169.628Z" fill="#72767D"/>
<path d="M112.149 167.876C112.013 167.878 111.879 167.833 111.773 167.748C111.666 167.662 111.593 167.542 111.565 167.408C111.565 167.253 111.627 167.105 111.736 166.995C111.846 166.886 111.995 166.824 112.149 166.824C112.283 166.852 112.403 166.925 112.489 167.032C112.574 167.138 112.619 167.272 112.617 167.408C112.617 167.532 112.567 167.651 112.48 167.739C112.392 167.826 112.273 167.876 112.149 167.876ZM111.682 173.717V168.927H112.5V173.717H111.682Z" fill="#72767D"/>
<path d="M116.005 173.715C115.354 173.715 114.73 173.457 114.27 172.997C113.81 172.537 113.551 171.913 113.551 171.262C113.551 170.612 113.81 169.988 114.27 169.527C114.73 169.067 115.354 168.809 116.005 168.809C116.547 168.8 117.079 168.964 117.523 169.276V170.094C117.334 169.925 117.111 169.796 116.87 169.716C116.629 169.636 116.375 169.605 116.121 169.627C115.304 169.627 114.719 170.211 114.719 171.262C114.719 172.314 115.42 173.015 116.121 173.015C116.401 173.023 116.679 172.976 116.94 172.875C117.2 172.775 117.438 172.624 117.64 172.43V173.248C117.168 173.594 116.588 173.76 116.005 173.715Z" fill="#72767D"/>
<path d="M120.093 173.715C119.527 173.737 118.965 173.617 118.458 173.365V172.43C118.908 172.828 119.493 173.037 120.093 173.015C120.677 173.015 121.028 172.781 121.028 172.43C121.028 172.08 120.794 171.846 119.976 171.613C119.159 171.379 118.341 170.912 118.341 170.094C118.341 169.276 119.042 168.809 120.093 168.809C120.62 168.802 121.141 168.922 121.612 169.159V169.977C121.152 169.699 120.63 169.538 120.093 169.51C119.626 169.51 119.275 169.743 119.275 170.094C119.275 170.444 119.509 170.561 120.327 170.795C121.145 171.029 122.079 171.379 122.079 172.314C122.079 173.248 121.378 173.715 120.093 173.715Z" fill="#72767D"/>
<g opacity="0.49">
<path opacity="0.49" d="M180.841 30.0234H144.042C143.203 30.0234 142.523 30.7034 142.523 31.5421V39.1823C142.523 40.0211 143.203 40.701 144.042 40.701H180.841C181.68 40.701 182.36 40.0211 182.36 39.1823V31.5421C182.36 30.7034 181.68 30.0234 180.841 30.0234Z" fill="#808AFF"/>
</g>
<path d="M64.0186 37.9678V31.4258H64.9531V37.1501H67.2896V37.9678H64.0186Z" fill="#72767D"/>
<path d="M69.9767 38.0846C69.6797 38.0865 69.3857 38.0254 69.1141 37.9054C68.8425 37.7855 68.5993 37.6093 68.4006 37.3886C68.202 37.1679 68.0523 36.9076 67.9615 36.6248C67.8708 36.3421 67.8409 36.0433 67.8739 35.7482C67.8417 35.4473 67.8714 35.143 67.9611 34.854C68.0508 34.565 68.1987 34.2974 68.3956 34.0676C68.5926 33.8378 68.8344 33.6508 69.1063 33.5179C69.3782 33.385 69.6744 33.3091 69.9767 33.2949C71.2617 33.2949 72.0795 34.2295 72.0795 35.7482C72.1125 36.0433 72.0826 36.3421 71.9918 36.6248C71.901 36.9076 71.7513 37.1679 71.5527 37.3886C71.354 37.6093 71.1109 37.7855 70.8392 37.9054C70.5676 38.0254 70.2736 38.0865 69.9767 38.0846ZM69.9767 33.9959C69.1589 33.9959 68.8084 34.8136 68.8084 35.7482C68.8084 36.6828 69.1589 37.3837 69.9767 37.3837C70.7944 37.3837 71.2617 36.6828 71.2617 35.7482C71.2617 34.8136 70.7944 33.9959 69.9767 33.9959Z" fill="#72767D"/>
<path d="M74.9999 38.0846C74.7029 38.0865 74.4089 38.0254 74.1373 37.9054C73.8656 37.7855 73.6225 37.6093 73.4238 37.3886C73.2252 37.1679 73.0755 36.9076 72.9847 36.6248C72.8939 36.3421 72.8641 36.0433 72.8971 35.7482C72.8649 35.4473 72.8946 35.143 72.9843 34.854C73.074 34.565 73.2219 34.2974 73.4188 34.0676C73.6158 33.8378 73.8576 33.6508 74.1295 33.5179C74.4014 33.385 74.6976 33.3091 74.9999 33.2949C76.2849 33.2949 77.1027 34.2295 77.1027 35.7482C77.1357 36.0433 77.1058 36.3421 77.015 36.6248C76.9242 36.9076 76.7745 37.1679 76.5759 37.3886C76.3772 37.6093 76.1341 37.7855 75.8624 37.9054C75.5908 38.0254 75.2968 38.0865 74.9999 38.0846ZM74.9999 33.9959C74.1821 33.9959 73.8316 34.8136 73.8316 35.7482C73.8316 36.6828 74.2989 37.3837 74.9999 37.3837C75.7008 37.3837 76.2849 36.6828 76.2849 35.7482C76.2849 34.8136 75.8176 33.9959 74.9999 33.9959Z" fill="#72767D"/>
<path d="M81.0747 38.0839L79.0887 35.6307V37.9671H78.271V31.1914H79.0887V35.397L80.8411 33.5279H81.8925L79.9065 35.397L82.0093 37.8503L81.0747 38.0839Z" fill="#72767D"/>
<path d="M87.7336 37.9678V37.3837C87.3022 37.8239 86.7144 38.0759 86.0981 38.0846C85.9248 38.103 85.7496 38.0824 85.5854 38.0244C85.4211 37.9663 85.2719 37.8722 85.1487 37.749C85.0255 37.6258 84.9314 37.4766 84.8733 37.3123C84.8152 37.148 84.7947 36.9729 84.813 36.7996C84.813 35.6314 85.7476 35.2809 87.6168 35.0473V34.8136C87.6168 34.2295 87.2663 34.1127 86.799 34.1127C86.2355 34.1155 85.6787 34.2349 85.1635 34.4631V33.7622C85.708 33.4843 86.3053 33.325 86.9159 33.2949C88.0841 33.2949 88.5514 33.7622 88.5514 34.8136V37.9678H87.7336ZM87.5 35.6314C85.8645 35.865 85.514 36.3323 85.514 36.7996C85.514 37.2669 85.7476 37.3837 86.2149 37.3837C86.4688 37.3747 86.7172 37.3067 86.9402 37.185C87.1633 37.0634 87.3549 36.8914 87.5 36.6828V35.6314Z" fill="#72767D"/>
<path d="M91.2382 38.0842C91.0649 38.1026 90.8897 38.082 90.7255 38.0239C90.5612 37.9658 90.412 37.8717 90.2888 37.7485C90.1656 37.6253 90.0715 37.4761 90.0134 37.3118C89.9553 37.1476 89.9347 36.9724 89.9531 36.7991V34.1122H89.2522V33.4113H89.9531V31.8926H90.7709V33.4113H91.7055V34.1122H90.6541V36.6823C90.6541 37.0328 90.7709 37.2664 91.2382 37.2664H91.5886V37.9674L91.2382 38.0842Z" fill="#72767D"/>
<path d="M96.4953 38.0842C96.322 38.1026 96.1468 38.082 95.9825 38.0239C95.8183 37.9658 95.669 37.8717 95.5458 37.7485C95.4226 37.6253 95.3286 37.4761 95.2705 37.3118C95.2124 37.1476 95.1918 36.9724 95.2102 36.7991V34.1122H94.5093V33.4113H95.2102V31.8926H96.028V33.4113H97.0794V34.1122H95.9111V36.6823C95.9111 37.0328 96.028 37.2664 96.6121 37.2664H96.9626V37.9674L96.4953 38.0842Z" fill="#72767D"/>
<path d="M101.051 37.9671V34.9297C101.051 34.4624 100.818 34.112 100.35 34.112C100.097 34.121 99.8482 34.189 99.6252 34.3107C99.4021 34.4323 99.2105 34.6043 99.0654 34.8129V37.9671H98.2477V31.1914H99.0654V34.112C99.4678 33.6989 100.009 33.4493 100.584 33.411C101.519 33.411 101.869 33.9951 101.869 34.8129V38.0839L101.051 37.9671Z" fill="#72767D"/>
<path d="M105.14 38.0846C103.855 38.0846 103.037 37.3837 103.037 35.7482C103.037 34.1127 103.855 33.2949 105.023 33.2949C106.192 33.2949 106.893 34.3463 106.893 35.6314H103.855C103.855 36.6828 104.322 37.2669 105.14 37.2669C105.447 37.2767 105.753 37.219 106.036 37.0979C106.318 36.9768 106.571 36.7952 106.776 36.5659V37.3837C106.317 37.7818 105.745 38.0268 105.14 38.0846ZM103.855 35.1641H106.075C105.958 34.4631 105.607 33.9959 105.023 33.9959C104.439 33.9959 103.972 34.3463 103.855 35.1641Z" fill="#72767D"/>
<path d="M109.346 38.084C108.77 38.0699 108.207 37.9091 107.71 37.6167V36.799C108.18 37.1619 108.752 37.3664 109.346 37.3831C109.93 37.3831 110.28 37.1495 110.28 36.799C110.28 36.4485 110.047 36.2149 109.229 35.9812C108.411 35.7476 107.71 35.3971 107.71 34.5794C107.725 34.395 107.776 34.2154 107.86 34.0509C107.945 33.8864 108.061 33.7402 108.202 33.6208C108.343 33.5013 108.507 33.411 108.683 33.355C108.859 33.2989 109.045 33.2783 109.229 33.2943C109.758 33.2714 110.282 33.3925 110.748 33.6448V34.4625C110.328 34.1892 109.845 34.0283 109.346 33.9953C108.878 33.9953 108.645 34.2289 108.645 34.5794C108.645 34.9298 108.878 35.0467 109.579 35.2803C110.28 35.5139 111.215 35.8644 111.215 36.6822C111.215 37.4999 110.514 38.084 109.346 38.084Z" fill="#72767D"/>
<path d="M114.019 38.0846C113.716 38.1074 113.412 38.0605 113.13 37.9475C112.849 37.8345 112.597 37.6584 112.394 37.4328C112.19 37.2072 112.042 36.938 111.959 36.646C111.876 36.3539 111.861 36.0468 111.916 35.7482C111.884 35.4473 111.913 35.143 112.003 34.854C112.093 34.565 112.241 34.2974 112.438 34.0676C112.635 33.8378 112.876 33.6508 113.148 33.5179C113.42 33.385 113.716 33.3091 114.019 33.2949C115.304 33.2949 115.888 34.3463 115.888 35.6314H112.85C112.85 36.6828 113.318 37.2669 114.135 37.2669C114.443 37.2767 114.748 37.219 115.031 37.0979C115.314 36.9768 115.566 36.7952 115.771 36.5659V37.3837C115.281 37.8048 114.664 38.0514 114.019 38.0846ZM112.85 35.1641H115.07C114.953 34.4631 114.603 33.9959 113.902 33.9959C113.201 33.9959 112.967 34.3463 112.85 35.1641Z" fill="#72767D"/>
<path d="M120.677 39.7185C119.509 39.7185 118.575 39.368 118.575 38.5503C118.575 37.7325 118.925 37.7325 119.509 37.382L119.276 36.9147C119.283 36.7665 119.33 36.6229 119.412 36.4995C119.494 36.376 119.609 36.2772 119.743 36.2138C119.487 36.1148 119.27 35.9367 119.123 35.7055C118.976 35.4743 118.907 35.2022 118.925 34.9288C118.925 34.7038 118.97 34.4811 119.06 34.2747C119.149 34.0682 119.28 33.8824 119.445 33.7289C119.609 33.5754 119.804 33.4575 120.016 33.3825C120.228 33.3076 120.453 33.2772 120.677 33.2932C121.101 33.3448 121.504 33.5059 121.846 33.7605L122.897 33.4101L123.131 34.111H122.196C122.327 34.3238 122.406 34.5635 122.43 34.8119C122.415 35.0269 122.358 35.2368 122.262 35.4296C122.166 35.6225 122.032 35.7944 121.869 35.9355C121.706 36.0766 121.517 36.1842 121.313 36.252C121.108 36.3198 120.892 36.3465 120.677 36.3306H120.327L120.093 36.5643C120.093 36.7979 120.21 36.7979 121.028 36.9147H121.378C122.313 37.0316 122.897 37.382 122.897 38.083C122.897 38.7839 121.846 39.7185 120.677 39.7185ZM120.093 37.6157C119.92 37.6857 119.765 37.7966 119.643 37.939C119.521 38.0813 119.435 38.2509 119.392 38.4334C119.392 38.7839 119.86 39.1344 120.794 39.1344C121.729 39.1344 122.079 38.7839 122.079 38.4334C122.079 38.083 121.963 37.9661 121.262 37.8493H120.093V37.6157ZM120.677 33.9942C120.43 33.9942 120.192 34.0926 120.017 34.2679C119.841 34.4432 119.743 34.6809 119.743 34.9288C119.743 35.1766 119.841 35.4143 120.017 35.5896C120.192 35.7649 120.43 35.8633 120.677 35.8633C120.925 35.8633 121.163 35.7649 121.338 35.5896C121.514 35.4143 121.612 35.1766 121.612 34.9288C121.612 34.6809 121.514 34.4432 121.338 34.2679C121.163 34.0926 120.925 33.9942 120.677 33.9942Z" fill="#72767D"/>
<path d="M126.636 37.9678V37.3837C126.204 37.8239 125.616 38.0759 125 38.0846C124.827 38.103 124.652 38.0824 124.487 38.0244C124.323 37.9663 124.174 37.8722 124.051 37.749C123.927 37.6258 123.833 37.4766 123.775 37.3123C123.717 37.148 123.697 36.9729 123.715 36.7996C123.715 35.6314 124.65 35.2809 126.519 35.0473V34.8136C126.519 34.2295 126.168 34.1127 125.701 34.1127C125.138 34.1155 124.581 34.2349 124.065 34.4631V33.7622C124.61 33.4843 125.207 33.325 125.818 33.2949C126.986 33.2949 127.57 33.7622 127.57 34.8136V37.9678H126.636ZM126.402 35.6314C124.766 35.865 124.416 36.3323 124.416 36.7996C124.416 37.2669 124.65 37.3837 125.117 37.3837C125.371 37.3747 125.619 37.3067 125.842 37.185C126.065 37.0634 126.257 36.8914 126.402 36.6828V35.6314Z" fill="#72767D"/>
<path d="M129.089 32.4772C128.855 32.4772 128.505 32.2435 128.505 32.0099C128.505 31.855 128.566 31.7064 128.676 31.5969C128.785 31.4873 128.934 31.4258 129.089 31.4258C129.244 31.4258 129.392 31.4873 129.502 31.5969C129.611 31.7064 129.673 31.855 129.673 32.0099C129.645 32.1438 129.572 32.2639 129.465 32.3493C129.359 32.4347 129.225 32.4799 129.089 32.4772ZM128.621 37.9678V33.4118H129.556V37.9678H128.621Z" fill="#72767D"/>
<path d="M133.762 37.9678V34.9304C133.762 34.4632 133.528 34.1127 133.061 34.1127C132.807 34.1217 132.559 34.1897 132.335 34.3114C132.112 34.433 131.921 34.605 131.776 34.8136V37.9678H130.958V33.4118H131.542V34.1127C131.962 33.6395 132.547 33.3466 133.178 33.2949C133.357 33.2942 133.534 33.3309 133.698 33.4026C133.862 33.4744 134.009 33.5796 134.13 33.7116C134.251 33.8436 134.343 33.9994 134.401 34.1691C134.458 34.3387 134.479 34.5185 134.463 34.6968V37.9678H133.762Z" fill="#72767D"/>
<path d="M137.383 38.083C136.77 38.0688 136.17 37.9086 135.631 37.6157V36.798C136.1 37.1609 136.673 37.3654 137.266 37.3821C137.85 37.3821 138.201 37.1485 138.201 36.798C138.201 36.4475 137.967 36.2139 137.15 35.9802C136.332 35.7466 135.631 35.3961 135.631 34.5784C135.631 33.7606 136.215 33.2933 137.266 33.2933C137.756 33.2856 138.24 33.4065 138.668 33.6438V34.4615C138.293 34.1871 137.847 34.0251 137.383 33.9942C136.799 33.9942 136.565 34.2279 136.565 34.5784C136.565 34.9288 136.799 35.0456 137.5 35.2793C138.201 35.5129 139.136 35.8634 139.136 36.6812C139.136 37.4989 138.551 38.083 137.383 38.083Z" fill="#72767D"/>
<path d="M148.131 36.6824C147.663 37.2665 147.313 37.617 146.846 37.617C146.378 37.617 145.794 37.1497 145.794 36.3319C145.762 36.0095 145.794 35.6839 145.888 35.3739C145.983 35.0639 146.138 34.7756 146.344 34.5258C146.55 34.276 146.804 34.0695 147.091 33.9184C147.377 33.7672 147.691 33.6743 148.014 33.645L149.533 33.8787L149.065 35.9815V36.4488C149.065 36.6037 149.127 36.7522 149.236 36.8618C149.346 36.9713 149.495 37.0329 149.649 37.0329C150.35 37.0329 150.818 36.3319 150.818 35.0469C150.854 34.6697 150.806 34.2892 150.678 33.9326C150.55 33.576 150.345 33.2521 150.077 32.9842C149.809 32.7162 149.485 32.5109 149.128 32.3827C148.772 32.2546 148.391 32.207 148.014 32.2431C147.523 32.2729 147.042 32.3993 146.6 32.6152C146.158 32.8311 145.762 33.1323 145.437 33.5013C145.111 33.8703 144.861 34.3 144.702 34.7657C144.543 35.2314 144.478 35.724 144.509 36.2151C144.473 36.5923 144.521 36.9728 144.649 37.3294C144.777 37.686 144.982 38.0099 145.25 38.2778C145.518 38.5458 145.842 38.7511 146.199 38.8793C146.555 39.0074 146.936 39.055 147.313 39.0189C148.038 39.0005 148.752 38.8418 149.416 38.5516V38.902C148.756 39.2046 148.039 39.3638 147.313 39.3693C146.89 39.4048 146.464 39.3475 146.065 39.2015C145.666 39.0556 145.304 38.8244 145.004 38.5241C144.704 38.2238 144.473 37.8617 144.327 37.4629C144.181 37.0641 144.123 36.6383 144.159 36.2151C144.127 35.119 144.524 34.0537 145.266 33.2463C146.008 32.4388 147.036 31.9531 148.131 31.8927C148.549 31.8541 148.971 31.9102 149.366 32.0569C149.76 32.2035 150.116 32.4369 150.407 32.7398C150.699 33.0427 150.919 33.4073 151.051 33.8067C151.182 34.206 151.222 34.6299 151.168 35.0469C151.168 36.5656 150.467 37.617 149.416 37.617C149.128 37.6278 148.845 37.5416 148.611 37.3721C148.378 37.2026 148.209 36.9597 148.131 36.6824ZM148.131 35.9815L148.481 34.4628H147.897C147.313 34.4628 146.729 35.2805 146.729 36.3319C146.729 37.3833 146.846 36.916 147.196 36.916C147.547 36.916 147.663 36.5656 148.131 35.9815Z" fill="white"/>
<path d="M155.374 38.0843C154.929 38.092 154.487 38.0119 154.073 37.8488C153.659 37.6856 153.281 37.4425 152.961 37.1333C152.315 36.5089 151.943 35.6534 151.928 34.7549C151.912 33.8563 152.254 32.9885 152.878 32.3422C153.503 31.6959 154.358 31.3241 155.257 31.3086C155.983 31.3141 156.7 31.4734 157.36 31.7759L157.126 32.9441C156.621 32.565 156.006 32.36 155.374 32.36C153.972 32.36 153.388 33.2946 153.388 34.6964C153.388 36.0983 154.089 37.0329 155.374 37.0329L156.425 36.7993V35.2806H155.14V34.346H157.71V37.3834C157.036 37.8802 156.21 38.1279 155.374 38.0843Z" fill="white"/>
<path d="M159.93 35.2809V37.9678H158.762V33.4117H159.813V34.3463C159.931 34.0384 160.139 33.7733 160.41 33.5857C160.681 33.3981 161.002 33.2967 161.332 33.2949V34.4631C161.054 34.4931 160.785 34.5814 160.543 34.7223C160.302 34.8632 160.093 35.0536 159.93 35.2809Z" fill="white"/>
<path d="M164.836 37.9667V37.3826C164.645 37.5971 164.411 37.77 164.15 37.8906C163.889 38.0112 163.605 38.0768 163.318 38.0836C163.144 38.102 162.969 38.0814 162.805 38.0233C162.641 37.9652 162.492 37.8711 162.368 37.7479C162.245 37.6247 162.151 37.4755 162.093 37.3112C162.035 37.147 162.014 36.9718 162.033 36.7985C162.033 35.6303 162.967 35.163 164.72 35.0462C164.72 34.4621 164.486 34.3452 164.019 34.3452C163.492 34.338 162.971 34.4582 162.5 34.6957L162.266 33.7611C162.86 33.5205 163.495 33.4014 164.135 33.4107C165.304 33.4107 165.888 33.878 165.888 34.9294V38.0836L164.836 37.9667ZM164.603 35.6303C163.318 35.8639 162.967 36.2144 162.967 36.6817C162.967 37.149 163.201 37.149 163.551 37.149C163.752 37.1684 163.954 37.1356 164.139 37.0537C164.323 36.9719 164.483 36.8437 164.603 36.6817V35.6303Z" fill="white"/>
<path d="M168.691 39.719C167.406 39.719 166.472 39.3686 166.472 38.5508C166.472 37.7331 166.705 37.8499 167.29 37.4994C167.169 37.369 167.088 37.2069 167.056 37.0321C167.056 36.6816 167.29 36.448 167.64 36.2144C167.373 36.1199 167.14 35.9465 166.973 35.717C166.806 35.4876 166.713 35.2129 166.705 34.9293C166.72 34.699 166.78 34.4739 166.883 34.2669C166.985 34.06 167.127 33.8752 167.3 33.7232C167.474 33.5713 167.676 33.4551 167.895 33.3814C168.113 33.3077 168.344 33.2779 168.575 33.2938C168.828 33.2723 169.083 33.3027 169.324 33.383C169.565 33.4634 169.787 33.592 169.976 33.7611L171.028 33.2938V34.2284H170.21C170.304 34.4495 170.344 34.6897 170.327 34.9293C170.312 35.1443 170.255 35.3542 170.159 35.547C170.063 35.7398 169.929 35.9118 169.766 36.0529C169.604 36.194 169.414 36.3016 169.21 36.3694C169.005 36.4372 168.789 36.4639 168.575 36.448H168.107V36.6817C168.107 36.7985 168.224 36.9153 168.925 37.0321H169.509C170.444 37.1489 171.028 37.4994 171.028 38.2003C171.028 38.9013 169.976 39.719 168.691 39.719ZM167.874 37.733C167.64 37.9667 167.406 38.2003 167.406 38.434C167.406 38.6676 167.874 39.0181 168.691 39.0181C169.509 39.0181 169.976 38.7845 169.976 38.434C169.976 38.0835 169.86 38.0835 169.276 37.9667H167.874V37.733ZM168.575 33.9947C168.107 33.9947 167.874 34.3452 167.874 34.9293C167.874 35.5134 168.107 35.7471 168.575 35.7471C168.687 35.768 168.802 35.7613 168.911 35.7276C169.02 35.6939 169.118 35.6342 169.199 35.5537C169.28 35.4732 169.339 35.3742 169.373 35.2654C169.407 35.1566 169.413 35.0413 169.392 34.9293C169.392 34.3452 169.159 33.9947 168.575 33.9947Z" fill="white"/>
<path d="M173.598 39.7194C172.313 39.7194 171.379 39.3689 171.379 38.5511C171.379 37.7334 171.729 37.8502 172.313 37.4997C172.219 37.4595 172.137 37.3951 172.075 37.313C172.014 37.231 171.975 37.1342 171.963 37.0324C171.963 36.682 172.196 36.4483 172.547 36.2147C172.301 36.1021 172.093 35.9209 171.948 35.6929C171.803 35.4649 171.727 35.1999 171.729 34.9296C171.727 34.6937 171.775 34.46 171.872 34.2447C171.968 34.0293 172.11 33.8374 172.287 33.682C172.465 33.5266 172.674 33.4115 172.9 33.3446C173.127 33.2776 173.365 33.2604 173.598 33.2941C173.833 33.2819 174.067 33.317 174.288 33.3973C174.509 33.4775 174.711 33.6014 174.883 33.7614L176.051 33.2941V34.2287H175.234C175.234 34.4624 175.351 34.696 175.351 34.9296C175.292 35.3737 175.066 35.7785 174.718 36.061C174.371 36.3434 173.928 36.482 173.481 36.4483H173.131L172.897 36.682C172.897 36.7988 173.014 36.9156 173.715 37.0324H174.416C175.351 37.1493 175.935 37.4997 175.935 38.2007C175.935 38.9016 174.883 39.7194 173.598 39.7194ZM172.897 37.7334C172.763 37.7968 172.649 37.8956 172.566 38.019C172.484 38.1425 172.437 38.2861 172.43 38.4343C172.43 38.7848 172.78 39.0184 173.715 39.0184C174.65 39.0184 175 38.7848 175 38.4343C175 38.0839 174.766 38.0839 174.182 37.967H172.897V37.7334ZM173.598 33.9951C173.014 33.9951 172.78 34.3455 172.78 34.9296C172.78 35.1465 172.867 35.3545 173.02 35.5079C173.173 35.6612 173.381 35.7474 173.598 35.7474C173.815 35.7474 174.023 35.6612 174.176 35.5079C174.33 35.3545 174.416 35.1465 174.416 34.9296C174.433 34.8129 174.424 34.6939 174.391 34.5807C174.357 34.4676 174.3 34.3631 174.222 34.2743C174.144 34.1855 174.048 34.1146 173.941 34.0664C173.833 34.0182 173.716 33.9939 173.598 33.9951Z" fill="white"/>
<path d="M178.388 38.0831C177.773 38.0838 177.168 37.9226 176.635 37.6158V36.6812C177.105 37.0441 177.678 37.2486 178.271 37.2653C178.855 37.2653 179.089 37.0317 179.089 36.6812C179.089 36.3307 178.855 36.2139 178.154 36.0971C177.453 35.9803 176.519 35.513 176.519 34.6952C176.519 33.8775 177.22 33.2934 178.271 33.2934C178.836 33.2852 179.395 33.405 179.907 33.6438L179.673 34.5784C179.247 34.3178 178.768 34.1579 178.271 34.1111C177.804 34.1111 177.57 34.3448 177.57 34.5784C177.57 34.8121 177.804 34.9289 178.505 35.1625C179.206 35.3962 180.14 35.7466 180.14 36.6812C180.14 37.6158 179.556 38.0831 178.388 38.0831Z" fill="white"/>
<path d="M73.4813 23.2485H71.2617L69.6262 17.4074L68.1075 23.2485H65.8878L63.4346 14.4868L65.8878 14.0195L67.2897 19.8607L68.6916 14.1364H71.028L72.4299 19.8607L73.7149 14.1364H75.9346L73.4813 23.2485Z" fill="#808AFF"/>
<path d="M80.257 23.2495V22.3149C80.0164 22.6176 79.7157 22.8673 79.3739 23.0482C79.0322 23.2292 78.6566 23.3375 78.271 23.3663C78.0102 23.3861 77.7483 23.3474 77.5045 23.2529C77.2606 23.1583 77.041 23.0104 76.8618 22.82C76.6826 22.6295 76.5482 22.4014 76.4686 22.1523C76.389 21.9032 76.3662 21.6394 76.4018 21.3803V16.8242H78.3878V20.7962C78.3878 21.2635 78.6215 21.6139 79.0888 21.6139C79.5007 21.5598 79.8766 21.351 80.1401 21.0298V16.8242H82.1261V23.2495H80.257Z" fill="#808AFF"/>
<path d="M90.6541 23.2485V19.1597C90.6541 18.6925 90.5373 18.4588 90.07 18.4588C89.6829 18.5138 89.3188 18.6756 89.0186 18.9261V23.2485H87.0326V19.1597C87.0326 18.6925 86.9158 18.4588 86.4485 18.4588C86.0614 18.5138 85.6973 18.6756 85.3971 18.9261V23.2485H83.4111V16.8233H85.1635V17.6411C85.4101 17.3543 85.7144 17.1228 86.0567 16.9617C86.3989 16.8007 86.7713 16.7137 87.1494 16.7065C87.4875 16.6554 87.8328 16.72 88.1296 16.8896C88.4264 17.0592 88.6573 17.3239 88.785 17.6411C89.0316 17.3543 89.3359 17.1228 89.6782 16.9617C90.0204 16.8007 90.3928 16.7137 90.7709 16.7065C91.0317 16.6866 91.2936 16.7253 91.5375 16.8199C91.7813 16.9144 92.0009 17.0623 92.1802 17.2528C92.3594 17.4432 92.4937 17.6713 92.5733 17.9205C92.6529 18.1696 92.6757 18.4334 92.6401 18.6925V23.2485H90.6541Z" fill="#808AFF"/>
<path d="M97.3129 23.2491L96.0278 23.0154V25.3519L94.0419 25.7024V16.8239H95.7942V17.6416C96.0275 17.3689 96.3132 17.1457 96.6342 16.9852C96.9552 16.8246 97.3052 16.7301 97.6634 16.707C98.9484 16.707 99.9998 17.6416 99.9998 19.8612C99.9998 22.0809 98.7148 23.2491 97.3129 23.2491ZM97.0792 18.4594C96.6673 18.5135 96.2914 18.7223 96.0278 19.0435V21.4968C96.3114 21.6604 96.6352 21.7414 96.9624 21.7304C97.5465 21.7304 98.1307 21.2631 98.1307 19.9781C98.1307 18.693 97.6634 18.4594 97.0792 18.4594Z" fill="#808AFF"/>
<path d="M105.14 23.2495L104.907 22.3149C104.666 22.6176 104.365 22.8673 104.023 23.0482C103.682 23.2292 103.306 23.3375 102.921 23.3663C101.752 23.3663 101.168 22.6653 101.168 21.3803V16.8242H103.154V20.7962C103.154 21.2635 103.271 21.6139 103.738 21.6139C103.963 21.6021 104.182 21.5441 104.383 21.4436C104.584 21.3431 104.762 21.2022 104.907 21.0298V16.8242H106.893V23.2495H105.14Z" fill="#808AFF"/>
<path d="M110.631 23.3646C109.693 23.3415 108.773 23.1016 107.944 22.6636L108.178 21.1449C108.912 21.6221 109.757 21.9036 110.631 21.9627C111.098 21.9627 111.449 21.7291 111.449 21.4954C111.449 21.2618 111.215 21.0281 110.28 20.7945C109.346 20.5608 108.061 19.8599 108.061 18.6917C108.061 17.5234 108.878 16.7057 110.514 16.7057C111.318 16.6806 112.118 16.8404 112.85 17.173L112.617 18.6917C111.964 18.352 111.248 18.153 110.514 18.1076C110.047 18.1076 109.813 18.2244 109.813 18.458C109.813 18.8085 110.047 18.9253 110.864 19.159C111.682 19.3926 113.201 20.0935 113.201 21.2618C113.201 22.43 112.266 23.3646 110.631 23.3646Z" fill="#808AFF"/>
<path d="M119.86 17.4076V23.2487H118.925V17.4076H116.822V16.5898H121.846V17.4076H119.86Z" fill="#72767D"/>
<path d="M123.598 23.3659C123.296 23.3517 123 23.2758 122.728 23.143C122.456 23.0101 122.214 22.823 122.017 22.5933C121.82 22.3635 121.672 22.0959 121.582 21.8069C121.493 21.5179 121.463 21.2136 121.495 20.9127C121.462 20.6175 121.492 20.3188 121.583 20.036C121.674 19.7533 121.823 19.493 122.022 19.2723C122.221 19.0515 122.464 18.8754 122.735 18.7554C123.007 18.6354 123.301 18.5744 123.598 18.5762C123.895 18.5744 124.189 18.6354 124.461 18.7554C124.732 18.8754 124.975 19.0515 125.174 19.2723C125.373 19.493 125.522 19.7533 125.613 20.036C125.704 20.3188 125.734 20.6175 125.701 20.9127C125.701 22.4314 124.883 23.3659 123.598 23.3659ZM123.598 19.2771C122.78 19.2771 122.43 19.9781 122.43 20.9127C122.43 21.8472 122.78 22.665 123.598 22.665C124.416 22.665 124.883 21.9641 124.883 20.9127C124.883 19.8613 124.416 19.2771 123.598 19.2771Z" fill="#72767D"/>
<path d="M129.907 23.2484V22.5474C129.756 22.7867 129.55 22.986 129.306 23.1284C129.062 23.2708 128.787 23.352 128.505 23.3652C127.453 23.3652 126.635 22.5474 126.635 21.0287C126.635 19.51 127.57 18.5755 128.738 18.5755L129.907 18.8091V16.4727H130.724V23.3652L129.907 23.2484ZM129.79 19.6269C129.447 19.3904 129.038 19.2678 128.621 19.2764C127.921 19.2764 127.453 19.8605 127.453 21.0287C127.453 22.197 127.804 22.5474 128.505 22.5474C128.767 22.5166 129.018 22.4271 129.241 22.2855C129.463 22.1439 129.651 21.9539 129.79 21.7297V19.6269Z" fill="#72767D"/>
<path d="M134.696 23.2481V22.664C134.504 22.8785 134.271 23.0514 134.01 23.1719C133.748 23.2925 133.465 23.3582 133.178 23.3649C132.999 23.3812 132.819 23.36 132.65 23.3028C132.48 23.2455 132.324 23.1535 132.192 23.0325C132.06 22.9115 131.955 22.7642 131.883 22.6002C131.812 22.4362 131.775 22.2589 131.776 22.0799C131.776 20.9117 132.71 20.4444 134.696 20.2107C134.696 19.6266 134.346 19.393 133.762 19.393C133.225 19.4215 132.703 19.582 132.243 19.8602V19.0425C132.792 18.79 133.392 18.67 133.995 18.692C135.047 18.692 135.631 19.1593 135.631 20.2107V23.3649L134.696 23.2481ZM134.579 20.9117C132.827 21.0285 132.477 21.4958 132.477 21.963C132.454 22.0597 132.457 22.1604 132.484 22.2557C132.511 22.351 132.562 22.4379 132.633 22.508C132.703 22.5781 132.79 22.6292 132.885 22.6565C132.98 22.6838 133.081 22.6864 133.178 22.664C133.704 22.5749 134.192 22.3308 134.579 21.963V20.9117Z" fill="#72767D"/>
<path d="M138.434 23.7151C138.084 24.7665 137.617 25.0002 136.916 25.0002H136.565V24.2992H137.033C137.383 24.2992 137.617 24.1824 137.85 23.7151V23.3647L136.215 18.8086H137.033L138.318 22.4301L139.486 18.9254H140.304L138.434 23.7151Z" fill="#72767D"/>
<path d="M146.028 23.2477V22.6636C145.597 23.1038 145.009 23.3558 144.392 23.3646C144.214 23.3808 144.034 23.3597 143.865 23.3024C143.695 23.2452 143.539 23.1531 143.407 23.0321C143.275 22.9111 143.17 22.7639 143.098 22.5998C143.027 22.4358 142.99 22.2586 142.991 22.0795C142.991 20.9113 144.042 20.444 145.911 20.2103C145.932 20.0984 145.925 19.983 145.892 19.8742C145.858 19.7654 145.798 19.6665 145.718 19.586C145.637 19.5054 145.538 19.4457 145.43 19.412C145.321 19.3783 145.205 19.3717 145.093 19.3926C144.52 19.4246 143.961 19.5843 143.458 19.8599V19.0421C144.011 18.8045 144.608 18.6851 145.21 18.6917C146.378 18.6917 146.846 19.1589 146.846 20.2103V23.3646L146.028 23.2477ZM145.911 20.9113C144.276 21.0281 143.925 21.4954 143.925 21.9627C143.925 22.43 144.159 22.6636 144.509 22.6636C144.778 22.648 145.041 22.5778 145.282 22.4573C145.523 22.3368 145.737 22.1685 145.911 21.9627V20.9113Z" fill="#72767D"/>
<path d="M149.65 23.2486C148.832 23.2486 148.248 23.015 148.248 22.0804V19.3935H147.664V18.6925H148.248V17.1738H149.182V18.8093H150.117V19.3935H149.065V21.9635C149.065 22.314 149.182 22.5477 149.65 22.5477H150V23.2486H149.65Z" fill="#72767D"/>
<path d="M157.126 21.7304V23.2491H156.308V21.7304H153.037V21.1463L156.075 16.707H157.126V21.0295H158.061V21.7304H157.126ZM156.308 17.7584L153.972 21.0295H156.308V17.7584Z" fill="#72767D"/>
<path d="M158.995 19.8616V18.6934H159.93V19.8616H158.995ZM158.995 23.2494V22.0812H159.93V23.2494H158.995Z" fill="#72767D"/>
<path d="M160.981 23.2496V22.5487L163.435 20.0954C163.665 19.9097 163.857 19.6796 163.997 19.4188C164.137 19.1579 164.224 18.8716 164.252 18.5767C164.271 18.4188 164.254 18.2587 164.202 18.1084C164.15 17.9581 164.064 17.8216 163.952 17.7091C163.839 17.5966 163.703 17.5112 163.553 17.4591C163.402 17.407 163.242 17.3897 163.084 17.4085C162.752 17.419 162.425 17.4969 162.124 17.6375C161.823 17.778 161.553 17.9784 161.332 18.2263V17.4085C161.577 17.1672 161.87 16.9801 162.192 16.8593C162.514 16.7386 162.858 16.6869 163.201 16.7076C164.486 16.7076 165.304 17.4085 165.304 18.4599C165.304 19.5113 164.953 19.745 164.136 20.5627L162.266 22.4319H165.187V23.2496H160.981Z" fill="#72767D"/>
<path d="M168.692 23.3659C167.173 23.3659 166.238 22.0809 166.238 19.9781C166.238 17.8753 167.173 16.707 168.692 16.707C170.21 16.707 171.145 17.8753 171.145 19.9781C171.145 22.0809 170.093 23.3659 168.692 23.3659ZM168.692 17.408C167.64 17.408 167.056 18.3425 167.056 19.9781C167.056 21.6136 167.64 22.5482 168.692 22.5482C169.743 22.5482 170.21 21.7304 170.21 19.9781C170.21 18.2257 169.626 17.408 168.692 17.408Z" fill="#72767D"/>
<path d="M174.299 23.2491H173.131V25.0014H172.313V18.693H172.897V19.2771C173.089 19.0626 173.323 18.8897 173.584 18.7691C173.845 18.6486 174.128 18.5829 174.416 18.5762C175.35 18.5762 176.168 19.2771 176.168 20.7958C176.168 22.3145 175.35 23.2491 174.299 23.2491ZM174.416 19.2771C174.151 19.2989 173.896 19.3848 173.672 19.5273C173.448 19.6697 173.263 19.8645 173.131 20.0949V22.3145L174.182 22.5481C174.883 22.5481 175.467 21.964 175.467 20.9126C175.467 19.8612 175 19.2771 174.416 19.2771Z" fill="#72767D"/>
<path d="M183.061 23.2476V20.0934C183.083 19.9968 183.08 19.8961 183.053 19.8007C183.026 19.7054 182.975 19.6186 182.905 19.5485C182.834 19.4783 182.748 19.4272 182.652 19.3999C182.557 19.3726 182.456 19.3701 182.36 19.3925C182.106 19.4015 181.857 19.4695 181.634 19.5912C181.411 19.7128 181.22 19.8848 181.075 20.0934V23.2476H180.257V20.0934C180.279 19.9968 180.277 19.8961 180.249 19.8007C180.222 19.7054 180.171 19.6186 180.101 19.5485C180.031 19.4783 179.944 19.4272 179.849 19.3999C179.753 19.3726 179.653 19.3701 179.556 19.3925C179.302 19.4015 179.054 19.4695 178.831 19.5912C178.608 19.7128 178.416 19.8848 178.271 20.0934V23.2476H177.453V18.6915H178.037V19.2757C178.482 18.8547 179.062 18.6062 179.673 18.5747C179.919 18.5339 180.172 18.582 180.386 18.7104C180.6 18.8388 180.761 19.0392 180.841 19.2757C181.285 18.8547 181.865 18.6062 182.476 18.5747C182.65 18.5563 182.825 18.5769 182.989 18.635C183.153 18.6931 183.303 18.7871 183.426 18.9104C183.549 19.0336 183.643 19.1828 183.701 19.347C183.759 19.5113 183.78 19.6865 183.762 19.8598V23.2476H183.061Z" fill="#72767D"/>
<path d="M32.8272 45.2103C41.8599 45.2103 49.1823 37.8878 49.1823 28.8551C49.1823 19.8224 41.8599 12.5 32.8272 12.5C23.7945 12.5 16.472 19.8224 16.472 28.8551C16.472 37.8878 23.7945 45.2103 32.8272 45.2103Z" fill="#EB459F"/>
<path d="M18.4579 26.2847C18.8084 24.9996 19.9766 24.9996 21.028 25.1164C21.1526 24.2714 21.3883 23.4465 21.7289 22.6632C23.014 20.2099 25.5841 19.7426 28.1542 19.509C30.7243 19.2753 36.9159 19.0417 40.8878 20.6772C41.5732 20.9732 42.182 21.4217 42.6679 21.9885C43.1538 22.5554 43.5039 23.2256 43.6916 23.9482C43.8084 24.065 43.8084 24.2987 43.9252 24.5323C43.9252 24.5013 43.9375 24.4716 43.9594 24.4497C43.9813 24.4278 44.0111 24.4155 44.042 24.4155C47.0794 24.1819 47.7804 26.5183 47.8972 28.8548C47.9418 30.1648 47.7438 31.4719 47.3131 32.7099C46.729 33.8781 45.4439 33.7613 44.2757 33.6445H44.042C43.1075 36.2146 40.771 37.266 38.0841 37.4996C33.8639 38.1423 29.5707 38.1423 25.3504 37.4996C24.346 37.4324 23.3943 37.0258 22.6513 36.3466C21.9084 35.6673 21.4184 34.7557 21.2617 33.7613H20.3271C18.9252 33.4108 18.2243 32.9435 17.9906 31.4249C17.8424 29.6973 18.0006 27.9572 18.4579 26.2847Z" fill="#7196FF"/>
<path d="M28.5047 24.4166C29.6366 23.756 30.9334 23.4318 32.243 23.482C34.0376 23.3845 35.8375 23.4628 37.6168 23.7156H38.0841C38.3864 23.77 38.6673 23.9085 38.8945 24.1151C39.1218 24.3217 39.2863 24.5881 39.3692 24.8838C40.0701 27.2203 39.6028 30.3745 36.7991 31.4259C33.9954 32.4773 30.958 32.2437 29.0888 30.725C27.2196 29.2063 26.4019 26.0521 28.5047 24.4166Z" fill="#BACFFF"/>
<path d="M35.2804 29.4393H36.9159C37.0832 29.4417 37.2459 29.3841 37.3744 29.2769C37.503 29.1698 37.589 29.0202 37.6168 28.8552C37.6192 28.6879 37.5616 28.5253 37.4545 28.3967C37.3473 28.2682 37.1977 28.1822 37.0327 28.1543H35.2804C34.4626 28.2711 34.3458 29.4393 35.2804 29.4393ZM30.0234 29.0889C30.021 29.2562 30.0786 29.4188 30.1858 29.5474C30.2929 29.6759 30.4425 29.7619 30.6075 29.7898H32.7103C32.8315 29.7248 32.931 29.6255 32.9962 29.5044C33.0614 29.3833 33.0895 29.2456 33.0771 29.1086C33.0646 28.9716 33.0121 28.8413 32.9261 28.7339C32.8401 28.6266 32.7245 28.5469 32.5935 28.5048H30.7243C30.3738 28.6216 30.0234 28.7384 30.0234 29.0889Z" fill="#7196FF"/>
<path d="M42.5235 28.2702C44.0422 28.2702 44.159 25.8169 42.6403 25.9337C42.4869 25.9261 42.3335 25.9487 42.1888 26.0003C42.0441 26.0519 41.911 26.1315 41.7971 26.2346C41.6832 26.3376 41.5907 26.4621 41.5249 26.6009C41.4591 26.7397 41.4213 26.8901 41.4137 27.0435C41.406 27.197 41.4286 27.3504 41.4802 27.4951C41.5319 27.6397 41.6115 27.7728 41.7145 27.8867C41.8176 28.0006 41.9421 28.0931 42.0809 28.1589C42.2197 28.2247 42.3701 28.2625 42.5235 28.2702ZM24.5328 28.6207C26.1683 28.6207 26.2852 26.1674 24.6496 26.1674C23.0141 26.1674 22.8973 28.6207 24.5328 28.6207Z" fill="#23272A"/>
<path d="M44.6261 31.5417C44.68 31.7072 44.7936 31.8468 44.9448 31.9331C45.096 32.0195 45.2739 32.0465 45.4439 32.009C46.3784 31.8921 46.4953 31.0744 46.6121 30.2566C46.7052 29.2382 46.6262 28.2114 46.3785 27.2192H46.2616C46.1869 27.0752 46.0646 26.9616 45.9155 26.8976C45.7664 26.8337 45.5997 26.8235 45.4439 26.8688C45.3571 26.8037 45.2539 26.7641 45.1459 26.7543C45.0378 26.7446 44.9292 26.7651 44.8322 26.8136C44.7352 26.8621 44.6536 26.9367 44.5965 27.029C44.5395 27.1213 44.5093 27.2276 44.5093 27.3361C44.5093 28.7379 44.6261 30.1398 44.6261 31.5417ZM20.5607 32.009C20.6946 31.9817 20.8147 31.9083 20.9001 31.8015C20.9855 31.6948 21.0307 31.5615 21.028 31.4249C21.1448 30.2566 21.2616 28.9716 21.2616 27.6865V27.4529C21.2366 27.3721 21.1943 27.2976 21.1377 27.2348C21.0811 27.1719 21.0115 27.122 20.9337 27.0887C20.856 27.0554 20.7719 27.0394 20.6873 27.0417C20.6027 27.0441 20.5197 27.0648 20.4439 27.1024C20.2364 27.1961 20.0702 27.3622 19.9766 27.5697C19.7429 28.3875 18.5747 32.5931 20.5607 32.009Z" fill="#BACFFF"/>
<path d="M237.033 48.248H69.2757C66.4368 48.248 64.1355 50.5494 64.1355 53.3882V147.092C64.1355 149.93 66.4368 152.232 69.2757 152.232H237.033C239.872 152.232 242.173 149.93 242.173 147.092V53.3882C242.173 50.5494 239.872 48.248 237.033 48.248Z" fill="#FFE75C"/>
<path d="M99.1823 48.248L119.393 152.22H93.6917L94.8599 48.248H99.1823Z" fill="#C2FFD1"/>
<path d="M242.173 147.08V130.608L122.08 48.248H106.542L163.668 152.22H237.033C238.396 152.22 239.704 151.678 240.667 150.714C241.631 149.751 242.173 148.443 242.173 147.08Z" fill="#C2FFD1"/>
<path d="M221.379 89.6039C217.991 76.6366 217.407 75.5852 212.967 75.5852C206.542 75.5852 203.738 77.9217 204.673 82.8282C205.608 87.7348 207.243 94.7441 207.243 94.7441C205.841 97.431 205.491 99.0665 205.841 100.819C200 100.352 196.145 102.221 193.458 103.039C188.668 96.8469 186.449 94.7441 170.678 96.4964L126.285 91.3563C116.589 86.4497 113.318 86.6834 106.893 89.6039C104.398 88.0304 101.62 86.959 98.7151 86.4497C98.1309 83.9964 97.8973 82.2441 95.3272 80.9591L98.2478 73.7161L94.2758 60.9824C90.0702 60.9824 90.8879 62.0338 84.3459 73.132C78.5048 76.7535 76.0515 80.1413 74.6496 83.1787C73.2477 86.2161 71.6122 89.8376 73.4814 96.6133C74.2992 99.0665 76.1683 99.6507 79.4393 100.819C86.3319 112.034 90.3038 114.137 104.089 113.786C100.935 121.613 100.584 126.169 107.944 131.426C107.36 143.109 107.243 144.744 115.537 152.221H178.622C186.566 148.833 189.837 144.744 194.86 125.001C208.528 127.805 212.617 129.908 225 121.847C231.893 120.679 233.295 118.459 233.061 113.553C232.126 98.7161 228.271 94.0432 221.379 89.6039Z" fill="#698EFF"/>
<path d="M107.36 63.5512C106.425 60.5139 100.818 60.8643 94.2759 60.9811L95.7946 75.1167C101.519 75.9344 103.622 75.8176 107.36 74.1821C111.098 72.5466 108.178 66.5886 107.36 63.5512Z" fill="#698EFF"/>
<path d="M218.341 79.3221C216.355 73.7147 214.836 73.2474 206.776 71.6118C198.715 69.9763 198.715 71.7287 196.145 78.0371C193.575 84.3455 195.327 86.4483 198.481 87.3829C201.635 88.3175 204.205 89.8361 208.528 89.1352C215.07 88.0838 218.341 79.3221 218.341 79.3221Z" fill="#698EFF"/>
<path d="M167.406 136.332C163.313 136.18 159.245 135.632 155.257 134.697C142.991 131.893 137.967 128.739 137.734 128.622C134.813 126.753 133.995 120.561 140.888 108.645C140.998 108.533 141.143 108.462 141.299 108.442C141.455 108.422 141.613 108.455 141.748 108.536C141.882 108.617 141.986 108.741 142.042 108.888C142.098 109.035 142.103 109.196 142.056 109.346C135.28 121.145 136.682 126.285 138.435 127.454C140.187 128.622 143.575 130.608 155.491 133.295C174.533 137.617 175.935 133.645 179.556 123.131C179.776 122.297 180.049 121.477 180.374 120.678C183.762 110.865 185.514 108.295 192.056 103.271C192.13 103.203 192.217 103.152 192.313 103.121C192.408 103.09 192.509 103.079 192.608 103.09C192.708 103.101 192.804 103.134 192.89 103.185C192.976 103.236 193.05 103.306 193.107 103.388C193.207 103.531 193.251 103.705 193.229 103.878C193.208 104.051 193.123 104.209 192.991 104.323C186.682 109.229 184.93 111.683 181.659 121.145C181.425 121.963 181.075 122.781 180.841 123.482C178.154 131.542 176.519 136.332 167.406 136.332Z" fill="#4F7AFF"/>
<path d="M202.921 116.822C199.861 116.792 196.825 116.28 193.925 115.304C193.76 115.25 193.62 115.136 193.534 114.985C193.447 114.834 193.42 114.656 193.458 114.486C193.535 114.311 193.67 114.169 193.841 114.084C194.012 113.998 194.207 113.975 194.392 114.019C202.687 116.706 208.995 115.07 214.486 112.967C214.57 112.928 214.661 112.906 214.754 112.903C214.847 112.899 214.94 112.914 215.027 112.947C215.114 112.98 215.193 113.029 215.261 113.093C215.328 113.156 215.383 113.233 215.421 113.318C215.46 113.402 215.481 113.493 215.485 113.586C215.488 113.679 215.473 113.771 215.441 113.858C215.408 113.945 215.359 114.025 215.295 114.092C215.231 114.16 215.155 114.214 215.07 114.252C211.219 115.869 207.096 116.741 202.921 116.822Z" fill="#4F7AFF"/>
<path d="M221.729 110.631L221.262 110.397C216.854 106.708 211.832 103.821 206.425 101.869C205.958 101.753 205.841 101.402 205.958 100.935C205.983 100.854 206.025 100.78 206.082 100.717C206.138 100.654 206.208 100.604 206.286 100.571C206.364 100.537 206.448 100.521 206.532 100.524C206.617 100.526 206.7 100.547 206.776 100.584C214.252 102.921 220.21 107.827 222.196 109.346C222.337 109.479 222.426 109.658 222.448 109.85C222.469 110.043 222.421 110.237 222.313 110.397L221.729 110.631Z" fill="#4F7AFF"/>
<path d="M104.673 113.318H104.439C104.354 113.281 104.278 113.226 104.214 113.159C104.151 113.091 104.101 113.011 104.069 112.924C104.036 112.838 104.021 112.745 104.024 112.652C104.028 112.559 104.05 112.468 104.089 112.384L108.878 102.571C108.994 102.398 109.056 102.195 109.056 101.987C109.056 101.779 108.994 101.575 108.878 101.403C107.128 97.9686 106.246 94.1582 106.308 90.3044C106.308 90.2124 106.327 90.1212 106.362 90.0362C106.397 89.9512 106.449 89.8739 106.514 89.8088C106.579 89.7437 106.656 89.6921 106.741 89.6569C106.826 89.6216 106.917 89.6035 107.009 89.6035C107.101 89.6035 107.193 89.6216 107.278 89.6569C107.363 89.6921 107.44 89.7437 107.505 89.8088C107.57 89.8739 107.622 89.9512 107.657 90.0362C107.692 90.1212 107.71 90.2124 107.71 90.3044C107.62 93.9608 108.465 97.5796 110.164 100.818C110.334 101.205 110.422 101.623 110.422 102.045C110.422 102.468 110.334 102.885 110.164 103.272L105.374 112.968C105.305 113.09 105.202 113.188 105.077 113.25C104.952 113.313 104.811 113.336 104.673 113.318Z" fill="#4F7AFF"/>
<path d="M114.369 133.178C112.39 133.226 110.417 132.95 108.528 132.36C108.362 132.306 108.223 132.192 108.137 132.041C108.05 131.89 108.023 131.712 108.061 131.542C108.178 131.075 108.528 130.958 108.995 131.075C114.135 132.594 121.262 131.659 131.892 128.038C131.977 127.999 132.068 127.977 132.161 127.973C132.254 127.97 132.346 127.985 132.433 128.017C132.52 128.05 132.6 128.099 132.667 128.163C132.735 128.227 132.789 128.303 132.827 128.388C132.87 128.574 132.848 128.769 132.762 128.94C132.677 129.11 132.534 129.246 132.36 129.323C124.883 131.893 119.042 133.178 114.369 133.178Z" fill="#4F7AFF"/>
<path d="M104.673 101.752H104.556C104.206 101.752 94.8598 100.584 89.1355 95.5604C89.0206 95.4319 88.957 95.2655 88.957 95.0931C88.957 94.9207 89.0206 94.7543 89.1355 94.6258C89.1802 94.5457 89.2431 94.4772 89.3191 94.426C89.3952 94.3747 89.4822 94.3421 89.5732 94.3307C89.6642 94.3193 89.7566 94.3295 89.843 94.3605C89.9293 94.3915 90.0071 94.4423 90.0701 94.509C95.4439 99.2987 104.673 100.35 104.79 100.35C104.907 100.35 105.374 100.701 105.374 101.168C105.346 101.333 105.26 101.482 105.131 101.59C105.003 101.697 104.84 101.754 104.673 101.752Z" fill="#4F7AFF"/>
<path d="M83.4111 89.9541C83.141 89.932 82.8899 89.8065 82.7102 89.6037C82.6488 89.414 82.6497 89.2096 82.7128 89.0204C82.7758 88.8312 82.8977 88.6672 83.0606 88.5523C87.4999 86.099 93.4578 85.8653 97.6635 85.7485C97.7555 85.7409 97.8482 85.7514 97.9361 85.7795C98.0241 85.8077 98.1057 85.8529 98.1762 85.9125C98.2467 85.9722 98.3048 86.0451 98.3471 86.1272C98.3894 86.2094 98.4151 86.299 98.4228 86.3911C98.4305 86.4831 98.4199 86.5758 98.3918 86.6637C98.3637 86.7517 98.3185 86.8333 98.2588 86.9038C98.1992 86.9743 98.1262 87.0324 98.0441 87.0747C97.962 87.117 97.8723 87.1427 97.7803 87.1504C93.5747 87.2672 87.9672 87.5009 83.7616 89.8373L83.4111 89.9541Z" fill="#4F7AFF"/>
<path d="M148.248 106.894H147.547C147.361 106.894 147.183 106.82 147.051 106.688C146.92 106.557 146.846 106.379 146.846 106.193C146.846 106.007 146.92 105.828 147.051 105.697C147.183 105.566 147.361 105.492 147.547 105.492C152.804 105.609 157.944 103.973 162.383 102.571C165.118 101.466 167.985 100.72 170.911 100.352C171.379 100.352 171.729 100.585 171.729 101.052C171.729 101.238 171.655 101.417 171.524 101.548C171.392 101.68 171.214 101.753 171.028 101.753C168.22 102.082 165.469 102.789 162.851 103.856C158.411 105.258 153.505 106.894 148.248 106.894Z" fill="#4F7AFF"/>
<path d="M138.201 105.14H137.967C134.475 104.004 131.308 102.04 128.738 99.416C127.354 97.9343 125.63 96.8117 123.715 96.145C123.63 96.1071 123.554 96.0528 123.49 95.9852C123.427 95.9175 123.377 95.8379 123.344 95.751C123.312 95.664 123.297 95.5714 123.3 95.4786C123.304 95.3858 123.326 95.2946 123.365 95.2104C123.419 95.0448 123.532 94.9053 123.683 94.8189C123.835 94.7325 124.012 94.7055 124.182 94.7431C126.28 95.4853 128.165 96.7285 129.673 98.3646C132.149 100.823 135.143 102.699 138.435 103.855C138.516 103.88 138.59 103.923 138.653 103.979C138.716 104.036 138.766 104.105 138.799 104.183C138.832 104.261 138.848 104.345 138.846 104.43C138.844 104.514 138.823 104.597 138.785 104.673C138.758 104.807 138.685 104.927 138.578 105.012C138.471 105.098 138.338 105.143 138.201 105.14Z" fill="#4F7AFF"/>
<path d="M160.514 150.584C152.804 141.238 140.07 134.93 134.112 135.514C128.154 136.098 123.949 141.939 120.911 151.869V152.22H124.65L129.556 147.43C134.813 142.29 136.098 143.575 139.136 145.093C142.173 146.612 145.911 149.065 150.935 152.22H161.916L160.514 150.584Z" fill="#4F7AFF"/>
<path d="M172.547 150.585C172.399 150.578 172.255 150.531 172.131 150.449C172.008 150.367 171.909 150.252 171.846 150.118C171.805 150.025 171.789 149.923 171.799 149.823C171.81 149.722 171.846 149.625 171.905 149.543C171.964 149.46 172.043 149.394 172.135 149.352C172.227 149.309 172.329 149.292 172.43 149.3C174.204 148.959 175.88 148.226 177.335 147.154C178.79 146.083 179.988 144.701 180.841 143.109C180.879 143.024 180.933 142.947 181.001 142.884C181.069 142.82 181.148 142.771 181.235 142.738C181.322 142.705 181.415 142.69 181.507 142.694C181.6 142.697 181.691 142.719 181.776 142.758C181.929 142.853 182.047 142.997 182.11 143.166C182.173 143.335 182.179 143.52 182.126 143.693C181.192 145.498 179.851 147.06 178.209 148.256C176.566 149.453 174.668 150.25 172.664 150.585H172.547Z" fill="#4F7AFF"/>
<path d="M176.986 142.407H176.402C176.216 142.407 176.038 142.333 175.906 142.201C175.775 142.07 175.701 141.892 175.701 141.706C175.701 141.52 175.775 141.342 175.906 141.21C176.038 141.079 176.216 141.005 176.402 141.005C178.222 141.102 180.041 140.785 181.721 140.077C183.4 139.368 184.897 138.288 186.098 136.916C186.212 136.784 186.37 136.699 186.543 136.677C186.716 136.656 186.89 136.699 187.033 136.799C187.115 136.856 187.184 136.93 187.236 137.016C187.287 137.103 187.32 137.199 187.331 137.298C187.342 137.398 187.331 137.499 187.3 137.594C187.269 137.689 187.217 137.777 187.15 137.851C185.875 139.287 184.31 140.436 182.557 141.221C180.805 142.007 178.906 142.411 176.986 142.407Z" fill="#4F7AFF"/>
<path d="M194.86 125.702H194.626L189.369 124.534C189.268 124.543 189.167 124.525 189.075 124.482C188.982 124.44 188.903 124.374 188.844 124.292C188.785 124.209 188.749 124.113 188.738 124.012C188.728 123.911 188.744 123.809 188.785 123.716C188.839 123.551 188.953 123.411 189.104 123.325C189.255 123.238 189.433 123.211 189.603 123.249L194.977 124.3C195.072 124.326 195.16 124.372 195.237 124.435C195.313 124.497 195.375 124.575 195.419 124.663C195.463 124.751 195.488 124.848 195.493 124.946C195.497 125.045 195.48 125.143 195.444 125.235C195.444 125.469 195.093 125.702 194.86 125.702Z" fill="#4F7AFF"/>
<path d="M115.771 147.898H115.537C111.565 146.145 108.995 143.108 108.762 139.603C108.762 139.417 108.835 139.239 108.967 139.108C109.098 138.976 109.277 138.902 109.463 138.902C109.548 138.885 109.637 138.887 109.722 138.908C109.807 138.93 109.886 138.97 109.953 139.026C110.021 139.082 110.075 139.153 110.111 139.232C110.147 139.312 110.165 139.399 110.163 139.487C110.397 142.991 113.434 145.444 116.121 146.613C116.206 146.651 116.283 146.705 116.346 146.773C116.41 146.84 116.459 146.92 116.492 147.007C116.525 147.094 116.54 147.186 116.536 147.279C116.533 147.372 116.511 147.463 116.472 147.547C116.394 147.66 116.289 147.751 116.166 147.812C116.044 147.873 115.908 147.903 115.771 147.898Z" fill="#4F7AFF"/>
<path d="M206.075 89.4867C210.514 88.9026 211.682 87.5007 212.851 85.7484C212.881 85.5935 212.973 85.4572 213.104 85.3696C213.236 85.282 213.397 85.2501 213.551 85.2811C213.706 85.3121 213.843 85.4033 213.93 85.5348C214.018 85.6662 214.05 85.8271 214.019 85.982C214.019 86.4493 213.785 87.1503 213.785 87.5007C212.5 92.7577 210.397 94.5101 206.776 92.7577L206.075 89.4867Z" fill="#4F7AFF"/>
<path d="M97.5469 75.5852C95.3272 75.1179 94.0422 74.3001 93.4581 72.4309C92.874 70.5618 91.4721 70.7954 91.5889 72.4309C91.7057 74.0665 92.4067 79.9076 95.9113 79.6739L97.5469 75.5852Z" fill="#4F7AFF"/>
<path d="M148.715 110.632C147.547 109.814 145.794 111.216 143.808 113.202C141.822 115.188 141.005 117.758 143.224 118.809C145.444 119.861 146.729 116.94 147.78 115.188C148.832 113.436 150 111.45 148.715 110.632Z" fill="#B7CCFF"/>
<path d="M124.565 102.174C125.223 101.908 125.462 100.966 125.1 100.068C124.737 99.1709 123.91 98.659 123.252 98.9249C122.594 99.1907 122.354 100.134 122.717 101.031C123.079 101.928 123.907 102.44 124.565 102.174Z" fill="#B7CCFF"/>
<path d="M144.977 134.463C148.131 135.748 148.715 136.683 148.365 137.384C148.014 138.085 147.43 137.734 144.977 136.333C142.524 134.931 143.224 133.762 144.977 134.463Z" fill="#B7CCFF"/>
<path d="M177.097 102.021C177.917 101.642 178.472 101.098 178.337 100.805C178.202 100.512 177.427 100.582 176.607 100.96C175.787 101.339 175.232 101.884 175.368 102.177C175.503 102.47 176.277 102.4 177.097 102.021Z" fill="#B7CCFF"/>
<path d="M109.463 111.565C108.061 111.098 106.542 113.902 106.542 116.472C106.542 119.042 109.813 121.612 111.449 120.794C113.084 119.976 112.267 117.99 111.215 116.472C110.164 114.953 110.631 111.916 109.463 111.565Z" fill="#B7CCFF"/>
<path d="M201.82 106.193C203.293 106.01 204.441 105.498 204.386 105.05C204.33 104.601 203.091 104.387 201.618 104.57C200.146 104.754 198.997 105.266 199.053 105.714C199.109 106.162 200.348 106.377 201.82 106.193Z" fill="#B7CCFF"/>
<path d="M98.131 90.3047C97.3712 90.6913 96.5303 90.8915 95.6777 90.8888C94.86 90.8888 94.2759 90.6552 94.2759 90.4215C94.2759 90.1879 95.3273 89.3701 96.846 89.2533C98.3647 89.1365 99.0656 89.7206 98.131 90.3047Z" fill="#B7CCFF"/>
<path d="M168.458 128.154H166.589C166.352 128.072 166.1 128.046 165.852 128.077C165.603 128.109 165.365 128.196 165.156 128.334C164.947 128.472 164.773 128.656 164.646 128.872C164.519 129.087 164.443 129.33 164.425 129.579C164.406 129.829 164.445 130.079 164.539 130.312C164.633 130.544 164.778 130.751 164.965 130.918C165.151 131.085 165.374 131.207 165.615 131.275C165.856 131.342 166.109 131.354 166.355 131.308L168.224 131.542C168.671 131.575 169.113 131.437 169.461 131.154C169.809 130.872 170.035 130.467 170.093 130.023C170.127 129.789 170.11 129.551 170.043 129.325C169.976 129.099 169.861 128.89 169.706 128.712C169.55 128.535 169.358 128.393 169.143 128.296C168.928 128.2 168.694 128.151 168.458 128.154Z" fill="#4F7AFF"/>
<path d="M108.294 123.247H106.425C106.189 123.166 105.936 123.14 105.688 123.171C105.44 123.202 105.202 123.29 104.993 123.428C104.784 123.566 104.609 123.749 104.482 123.965C104.355 124.181 104.28 124.423 104.261 124.673C104.243 124.923 104.282 125.173 104.375 125.405C104.469 125.637 104.615 125.845 104.801 126.012C104.988 126.179 105.21 126.301 105.451 126.369C105.692 126.436 105.945 126.447 106.192 126.402H108.061C108.276 126.435 108.495 126.424 108.706 126.371C108.917 126.318 109.116 126.224 109.29 126.093C109.464 125.963 109.61 125.799 109.72 125.611C109.83 125.423 109.901 125.215 109.93 125C109.931 124.555 109.762 124.126 109.459 123.8C109.155 123.475 108.739 123.277 108.294 123.247Z" fill="#4F7AFF"/>
<path d="M131.075 91.2383C138.668 101.635 140.07 111.449 169.159 95.4439L131.075 91.2383Z" fill="#4F7AFF"/>
<path d="M163.084 66.4728C163.572 66.1171 163.98 65.663 164.282 65.1398C164.584 64.6166 164.773 64.036 164.836 63.4354C164.848 62.4428 164.55 61.4711 163.985 60.6549C163.42 59.8387 162.615 59.2183 161.682 58.8794L159.696 58.2952H159.579C156.425 58.0616 154.907 59.5803 152.22 61.5663C150.466 62.9104 148.589 64.0839 146.612 65.0709L163.084 66.4728Z" fill="#55F186"/>
<path d="M153.972 66.7064C153.827 66.6888 153.687 66.6374 153.566 66.5562C153.444 66.4751 153.343 66.3665 153.271 66.2391C153.214 66.1336 153.18 66.0167 153.173 65.8968C153.166 65.7769 153.186 65.6569 153.23 65.5453C153.275 65.4338 153.344 65.3335 153.431 65.2515C153.519 65.1695 153.624 65.1078 153.738 65.0709C155.681 64.1194 157.395 62.761 158.766 61.0879C160.137 59.4148 161.131 57.4663 161.682 55.3747C161.744 55.1578 161.89 54.9744 162.087 54.8648C162.284 54.7553 162.517 54.7286 162.734 54.7905C162.95 54.8525 163.134 54.9981 163.243 55.1953C163.353 55.3924 163.38 55.6251 163.318 55.8419C162.714 58.1736 161.605 60.3444 160.071 62.2013C158.537 64.0583 156.615 65.5562 154.439 66.5896L153.972 66.7064Z" fill="#008D3C"/>
<path d="M157.01 66.1222L144.51 65.0708C140.421 63.6689 138.435 60.5147 139.019 56.8932C139.603 53.2717 142.173 52.3371 145.444 52.5708C148.715 52.8044 150.584 55.725 151.986 57.9446C155.024 63.0848 157.01 66.1222 157.01 66.1222Z" fill="#26CB7A"/>
<path d="M151.752 68.8091C151.662 68.8091 151.572 68.788 151.491 68.7474C151.41 68.7069 151.339 68.648 151.285 68.5755C147.196 65.5381 144.392 61.6829 143.692 57.9446C143.575 57.4773 143.808 57.01 144.276 57.01C144.383 56.9746 144.496 56.9618 144.609 56.9724C144.721 56.983 144.831 57.0168 144.929 57.0717C145.028 57.1265 145.114 57.2013 145.183 57.2912C145.251 57.3812 145.3 57.4843 145.327 57.5942C145.677 59.2297 146.963 63.2016 152.336 67.1736C152.517 67.3317 152.63 67.5534 152.652 67.7927C152.674 68.032 152.603 68.2705 152.453 68.4586C152.375 68.5711 152.27 68.6621 152.147 68.7233C152.025 68.7845 151.889 68.814 151.752 68.8091Z" fill="#008D3C"/>
<path d="M125.234 71.0276L129.322 71.2612C129.487 71.2891 129.637 71.3751 129.744 71.5036C129.851 71.6322 129.909 71.7948 129.906 71.9622L128.388 87.7332C128.36 87.8982 128.274 88.0478 128.145 88.1549C128.017 88.262 127.854 88.3196 127.687 88.3173L123.598 87.85C122.41 87.636 121.333 87.0199 120.546 86.1052C119.759 85.1905 119.31 84.0329 119.276 82.8266C119.375 80.2411 119.648 77.6652 120.093 75.1164C120.317 73.9313 120.959 72.8662 121.903 72.1155C122.846 71.3648 124.029 70.9787 125.234 71.0276Z" fill="#698EFF"/>
<path d="M124.416 74.0664H126.635C127.103 74.0664 127.336 74.5337 127.336 75.001L126.519 83.4122C126.52 83.515 126.499 83.6168 126.457 83.7104C126.414 83.8041 126.352 83.8873 126.274 83.9542C126.196 84.0211 126.104 84.07 126.005 84.0975C125.906 84.1249 125.802 84.1303 125.701 84.1131L123.598 83.8795C123.175 83.7773 122.797 83.5391 122.523 83.2014C122.249 82.8637 122.093 82.4452 122.079 82.0103C122.095 79.8561 122.29 77.7068 122.663 75.5851C122.742 75.1717 122.958 74.7968 123.276 74.5212C123.594 74.2456 123.995 74.0853 124.416 74.0664Z" fill="#B7CCFF"/>
<path d="M124.65 77.805C124.439 80.5257 124.4 83.2569 124.533 85.9825C124.722 88.0184 125.528 89.9479 126.843 91.5135C128.159 93.0791 129.92 94.2062 131.893 94.7442C135.164 95.6788 143.458 96.7302 149.299 97.1975C155.14 97.6648 163.435 98.2489 166.939 97.8984C168.982 97.7848 170.934 97.0204 172.511 95.717C174.087 94.4137 175.205 92.64 175.701 90.6554C176.397 88.0134 176.866 85.3167 177.103 82.5947C177.43 79.8806 177.469 77.1395 177.22 74.4171C177.063 72.3704 176.269 70.4242 174.949 68.8525C173.629 67.2808 171.849 66.1626 169.86 65.6554C166.589 64.7208 158.294 63.6694 152.453 63.0853C146.612 62.5012 138.318 62.0339 134.813 62.3844C132.777 62.5739 130.848 63.38 129.282 64.6951C127.717 66.0102 126.589 67.7716 126.051 69.7442C125.334 72.3817 124.865 75.0803 124.65 77.805Z" fill="#698EFF"/>
<path d="M153.738 85.8642L145.094 85.0465C139.837 84.3455 138.318 82.1259 137.967 78.9717C137.604 76.3186 137.763 73.62 138.435 71.0278C138.503 70.4951 138.682 69.9826 138.959 69.523C139.237 69.0634 139.608 68.667 140.048 68.359C140.488 68.051 140.987 67.8384 141.514 67.7347C142.041 67.631 142.584 67.6385 143.108 67.7567L157.71 69.0418C158.806 69.1599 159.812 69.7034 160.511 70.5555C161.21 71.4076 161.547 72.5001 161.449 73.5979L160.865 79.3222C160.514 83.9951 157.944 86.2147 153.738 85.8642Z" fill="#B7CCFF"/>
<path d="M144.509 77.6874L142.64 77.4538C142.211 77.4167 141.783 77.5391 141.438 77.7977C141.093 78.0564 140.856 78.433 140.771 78.8556C140.735 79.0839 140.751 79.3176 140.818 79.5387C140.886 79.7598 141.003 79.9626 141.161 80.1316C141.318 80.3006 141.513 80.4314 141.728 80.514C141.944 80.5965 142.176 80.6287 142.407 80.608L144.276 80.8416C144.491 80.8746 144.71 80.8643 144.921 80.8114C145.132 80.7585 145.331 80.664 145.505 80.5334C145.679 80.4029 145.825 80.2389 145.935 80.0511C146.045 79.8633 146.116 79.6555 146.145 79.4398C146.181 79.2115 146.165 78.9779 146.098 78.7567C146.03 78.5356 145.913 78.3328 145.756 78.1638C145.598 77.9948 145.404 77.864 145.188 77.7815C144.972 77.6989 144.74 77.6667 144.509 77.6874Z" fill="#698EFF"/>
<path d="M153.271 78.3874H151.402C150.954 78.3188 150.496 78.4265 150.126 78.6879C149.756 78.9493 149.501 79.3441 149.416 79.7892C149.415 80.2344 149.583 80.6633 149.887 80.9888C150.191 81.3142 150.607 81.5119 151.051 81.5416L152.92 81.7752C153.381 81.812 153.838 81.6772 154.205 81.3968C154.571 81.1164 154.821 80.7102 154.906 80.2565C154.91 79.7987 154.745 79.3555 154.444 79.011C154.143 78.6665 153.725 78.4446 153.271 78.3874Z" fill="#698EFF"/>
<path d="M166.121 77.9202C167.476 77.9202 168.575 76.8218 168.575 75.4669C168.575 74.112 167.476 73.0137 166.121 73.0137C164.767 73.0137 163.668 74.112 163.668 75.4669C163.668 76.8218 164.767 77.9202 166.121 77.9202Z" fill="black"/>
<path d="M133.411 74.8831C134.766 74.8831 135.864 73.7847 135.864 72.4298C135.864 71.0749 134.766 69.9766 133.411 69.9766C132.056 69.9766 130.958 71.0749 130.958 72.4298C130.958 73.7847 132.056 74.8831 133.411 74.8831Z" fill="black"/>
<path d="M153.855 93.8089C153.147 93.965 152.413 93.9621 151.706 93.8005C150.999 93.6389 150.336 93.3226 149.766 92.8743C148.715 92.1734 148.014 91.2388 148.248 90.4211C148.481 89.6033 155.491 87.3837 156.893 87.9678C157.176 88.1279 157.406 88.3692 157.551 88.6606C157.697 88.952 157.752 89.2802 157.71 89.6033C157.642 90.6385 157.223 91.6195 156.522 92.3842C155.822 93.1489 154.881 93.6515 153.855 93.8089Z" fill="#E9459D"/>
<path d="M156.892 87.9682C155.196 87.8186 153.486 88.0174 151.869 88.5523C151.71 89.0821 151.67 89.6408 151.752 90.1879C151.79 90.9289 152.013 91.6487 152.401 92.2813C152.789 92.914 153.329 93.4393 153.972 93.8093C154.967 93.6096 155.87 93.0911 156.545 92.3323C157.219 91.5735 157.628 90.6157 157.71 89.6037C157.752 89.2807 157.697 88.9524 157.551 88.661C157.405 88.3696 157.176 88.1284 156.892 87.9682Z" fill="black"/>
<path d="M178.972 75.9341L174.883 75.4669C174.716 75.4645 174.553 75.5221 174.425 75.6293C174.296 75.7364 174.21 75.886 174.182 76.051L172.78 91.822C172.778 91.9893 172.836 92.152 172.943 92.2805C173.05 92.4091 173.2 92.4951 173.365 92.523L177.453 92.7566C178.658 92.8055 179.841 92.4193 180.784 91.6687C181.728 90.918 182.37 89.8528 182.594 88.6678C183.059 86.124 183.293 83.5435 183.294 80.9575C183.282 79.7449 182.842 78.5755 182.051 77.6563C181.26 76.737 180.169 76.127 178.972 75.9341Z" fill="#698EFF"/>
<path d="M178.622 78.6224L176.519 78.3887C176.418 78.3716 176.314 78.3769 176.215 78.4044C176.116 78.4319 176.024 78.4808 175.946 78.5477C175.868 78.6145 175.805 78.6978 175.763 78.7914C175.721 78.8851 175.7 78.9869 175.701 79.0897L174.883 87.5009C174.883 87.9682 175.117 88.4355 175.584 88.4355H177.687C178.145 88.439 178.588 88.2745 178.933 87.973C179.277 87.6716 179.499 87.2541 179.556 86.7999C179.93 84.6782 180.125 82.529 180.14 80.3747C180.087 79.9659 179.914 79.5818 179.644 79.2703C179.374 78.9587 179.019 78.7334 178.622 78.6224Z" fill="#B7CCFF"/>
<path d="M153.855 93.8091C153.147 93.9652 152.413 93.9623 151.706 93.8007C150.999 93.6391 150.337 93.3228 149.766 92.8745C151.036 91.7579 152.502 90.8864 154.089 90.3044C155.26 89.9136 156.478 89.678 157.71 89.6035C157.643 90.6387 157.224 91.6197 156.523 92.3844C155.822 93.1491 154.881 93.6517 153.855 93.8091Z" fill="#FFADD6"/>
<path d="M196.963 61.7989C196.226 61.3462 195.602 60.7327 195.137 60.0043C194.671 59.276 194.377 58.4517 194.276 57.5933L193.808 54.5559C193.808 54.4391 193.692 54.3223 193.458 54.3223L193.224 54.5559L192.757 57.5933C192.635 58.4595 192.319 59.2871 191.834 60.0151C191.348 60.743 190.706 61.3526 189.953 61.7989L189.603 62.0325C189.486 62.1494 189.486 62.1494 189.486 62.2662C189.481 62.3295 189.488 62.3932 189.508 62.4535C189.528 62.5137 189.561 62.5692 189.603 62.6167L189.953 62.8503C190.706 63.2966 191.348 63.9062 191.834 64.6341C192.319 65.3621 192.635 66.1897 192.757 67.0559L193.224 70.0933L193.458 70.3269C193.692 70.3269 193.808 70.2101 193.808 70.0933L194.276 67.0559C194.377 66.1975 194.671 65.3732 195.137 64.6449C195.602 63.9165 196.226 63.303 196.963 62.8503L197.313 62.6167L197.547 62.2662C197.547 62.1494 197.43 62.1494 197.313 62.0325L196.963 61.7989Z" fill="#FD78B7"/>
<path d="M84.1121 127.57C83.367 127.088 82.732 126.453 82.2489 125.708C81.7657 124.964 81.4453 124.125 81.3084 123.248L80.8411 120.327C80.8411 120.094 80.7243 120.094 80.6075 120.094C80.3738 120.094 80.257 120.094 80.257 120.327L79.7897 123.248C79.6737 124.118 79.3741 124.953 78.9109 125.698C78.4477 126.443 77.8314 127.081 77.1028 127.57L76.7523 127.804C76.6904 127.804 76.6309 127.829 76.5871 127.872C76.5433 127.916 76.5187 127.976 76.5187 128.038C76.5187 128.1 76.5433 128.159 76.5871 128.203C76.6309 128.247 76.6904 128.271 76.7523 128.271L77.1028 128.505C77.8421 128.982 78.4664 129.617 78.931 130.365C79.3956 131.112 79.6888 131.953 79.7897 132.827L80.257 135.748C80.257 135.865 80.3738 135.982 80.6075 135.982L80.8411 135.748L81.3084 132.827C81.4304 131.945 81.7448 131.101 82.2293 130.354C82.7138 129.607 83.3566 128.976 84.1121 128.505L84.4626 128.271C84.5794 128.271 84.5794 128.155 84.5794 128.038C84.5794 127.921 84.5794 127.804 84.4626 127.804L84.1121 127.57Z" fill="white"/>
<path d="M219.86 131.076C218.749 130.358 217.8 129.416 217.076 128.309C216.352 127.202 215.867 125.956 215.654 124.651L215.07 120.095C214.953 119.861 214.836 119.744 214.603 119.744C214.369 119.744 214.136 119.861 214.136 120.095L213.435 124.651C213.267 125.971 212.802 127.235 212.073 128.349C211.344 129.462 210.372 130.395 209.229 131.076L208.645 131.426C208.528 131.543 208.528 131.66 208.528 131.894C208.523 131.957 208.53 132.021 208.55 132.081C208.57 132.141 208.603 132.197 208.645 132.244L209.229 132.595C210.364 133.313 211.328 134.271 212.055 135.401C212.781 136.531 213.252 137.806 213.435 139.137L214.136 143.576C214.136 143.7 214.185 143.819 214.272 143.906C214.36 143.994 214.479 144.043 214.603 144.043C214.836 144.043 214.953 143.81 215.07 143.576L215.654 139.137C215.879 137.819 216.367 136.561 217.09 135.437C217.813 134.313 218.755 133.346 219.86 132.595L220.444 132.244L220.678 131.894C220.678 131.803 220.656 131.714 220.616 131.632C220.575 131.551 220.516 131.481 220.444 131.426L219.86 131.076Z" fill="#66BCFF"/>
<circle cx="21" cy="170" r="7" fill="#B9BBBE"/>
<path d="M21 167L21 173" stroke="#40444B" stroke-linecap="round"/>
<path d="M18 170H24" stroke="#40444B" stroke-linecap="round"/>
<defs>
<clipPath id="clip0_27840_41859">
<rect width="16" height="16" fill="white" transform="translate(364 162)"/>
</clipPath>
</defs>
</svg>
